<svg xmlns="http://www.w3.org/2000/svg" viewBox="0 0 347.65 347.45"><defs><style>.cls-1{fill:#703c8f;}.cls-2{fill:#ffd009;}.cls-3{fill:#eb569a;}.cls-4{fill:#0b0508;}.cls-5{fill:#080706;}.cls-6{fill:#0a0807;}.cls-7{fill:#6f3c8f;}.cls-8{fill:#703d90;}.cls-9{fill:#0a0404;}.cls-10{fill:#080403;}.cls-11{fill:#312125;}.cls-12{fill:#713c90;}.cls-13{fill:#713e90;}.cls-14{fill:#713f91;}.cls-15{fill:#020202;}</style></defs><g id="Camada_2" data-name="Camada 2"><g id="Camada_1-2" data-name="Camada 1"><path class="cls-1" d="M74.16,250.46q-18.52,23.09-37,46.19c-8.08,10.1-16.11,20.26-24.56,30.89-9-11.82-14.5-24.79-11.81-39.36,16.13-87.37,32.71-174.65,49.13-262,.27-1.46.39-2.94.57-4.43L.88,70.82C-4.19,34.16,13.15,9.45,41.52,1.72A47.48,47.48,0,0,1,54.32.07C65.78.12,77.24.2,88.7,0c3.67-.07,4.82.39,3.87,4.59q-17.68,78.84-35,157.75c-.21,1-.3,1.94-.44,2.9,1.62.87,2.2-.51,3-1.12Q89,141.29,117.86,118.37c1.3-1,2.69-1.93,4-2.89,2.63.44,2.55,2.82,3.06,4.58a303.87,303.87,0,0,1,7.58,31.81c.7,3.88,1,7.95,4.54,10.64,8.54,7.88,18.32,14.23,27.1,21.81A14.69,14.69,0,0,1,166,186c3.16,8.44,3.42,17.26,3.58,26.11-1.32,2-3,2.3-5,1.09-2.62-2.59-2.25-6.14-2.71-9.32s-1.07-6.54-1.24-9.84a8.19,8.19,0,0,0-3.4-6.3c-8.78-7.06-18-13.52-26.46-21a5,5,0,0,0-4.59-1.22C120.49,166.7,114.82,168,111,173c-1.21,1.07-2.68,1.79-3.87,2.88-.42.39-1.28.42-1.22,1.28a2.45,2.45,0,0,1,1.84.36c8.38,9.23,16,19.11,23.9,28.69a10.67,10.67,0,0,1,1.83,4.06c4.53,15.63,9,31.29,13.43,46.95.78,2.7,1.76,5.65-2,7.15a6.2,6.2,0,0,1-4.5-.35c2-6.23.72-11.88-3-17.1-3-5.42-4.33-11.48-5.54-17.4A65.27,65.27,0,0,0,113.4,195.2a106.14,106.14,0,0,1-7-8.35c-4.57-5.6-8.95-6.25-14.93-2-3.5,2.49-6.57,5.56-10.26,7.8-12.78,7.91-12,7.94-11.71,22.44.24,10.15,2.88,19.57,5,29.23C74.89,246.37,75.94,248.5,74.16,250.46Z"/><path class="cls-2" d="M164.51,185.54c-9.49-6.9-18.87-13.95-27.66-21.75,2.09-4.42,1.35-8.85.43-13.45A463.64,463.64,0,0,0,102.56,45.79c-2.27-4.89-5.41-9.51-6.1-15.07,14.16-4.11,28.33-8.17,42.46-12.36,2.67-.8,3.5.89,4.62,2.57C155,38,167.31,54.61,172,75.22c1.88,1.2,2.15,3.25,2.66,5.15,4.66,17.66,7.13,35.68,8.65,53.85.39,4.62,1.14,9.2.94,13.85a2.18,2.18,0,0,0,1.26,2.44c3.54-.41,4.56-2.88,5-5.89,1.33-10.19,2.14-20.43,2.75-30.66,1.29-21.81,2.19-43.63,2.31-65.5,0-6.84,0-13.89,1.58-20.71,8.28.43,16.29,2.66,24.46,3.79,1.8.25,3.61.37,5.42.55,4.71-1.2,9.11.38,13.52,1.58,1.6.43,3.17,1.31,2.34,3.54,1,10,1.81,20.12,3.14,30.12,1.61,12.25-1,24.12-2.77,36a444.78,444.78,0,0,1-12.05,53.81,28,28,0,0,0-.51,4.41c-1,2-2.92,2.63-4.76,3.26-18.93,6.43-37.65,13.46-56.56,19.92A9.34,9.34,0,0,1,164.51,185.54Z"/><path class="cls-1" d="M265.13,233.44q26.28-41.35,52.56-82.7,14.42-22.63,28.93-45.31c1.6,1,.86,2.45.86,3.59q.06,91.44,0,182.88c0,2,0,4-.15,6-1.19,15.78-4,19-19.05,22.39-14.16,3.21-28.29,6.5-43.17,9.92,10.64-40.26,21.11-79.89,31.92-120.82l-47.14,39.83c-.45-.21-1.05-.55-1-1C270.18,242.63,267.7,238,265.13,233.44Z"/><path class="cls-3" d="M140.55,263.14l4.48.42c3.51,4.75,3.51,4.75,9.09,1.86,4.1-1.79,8.25-3.45,12.43-5,3.23-1.2,4.28-3.22,3.59-6.54s-.78-6.89-1.29-10.33a3.68,3.68,0,0,1,.82-2.2,2.67,2.67,0,0,1,2.3-.3,8.43,8.43,0,0,1,3.73,3.81c2.89,5.12,7.42,6.81,13,7.48,3.48.42,7.66-.64,10.32,3-4.14,3.87-9.79,4.64-14.64,7-4.31,2.13-8.92,3.64-13.37,5.46-2,.83-4.06,1.73-4.89,3.95-4,10.87-7.21,22-10.91,33.87,2.86-1,3-2.95,3.52-4.46,2.57-7.72,5.54-15.32,7.45-23.24a11.8,11.8,0,0,1,8.11-9.14c9.36-3.38,18.48-7.44,27.66-11.3a10.55,10.55,0,0,1,4.8-1.13c8.76,2.53,16.7,7,25.11,10.43,10.42,4.19,20.57,9,30.9,13.38,1.92.82,4.14,1.36,5.16,3.56-5.26,5.36-11.57,9.4-17.51,13.88-8.76,6.61-17,13.84-25.43,20.82a27.49,27.49,0,0,1-5.44.44c-22.9.58-45.8-.35-68.66-1.23-17.38-.68-34.66-3.34-52-5a6.54,6.54,0,0,1-3.66-1.4c-1.62-1.61-2.07-3.76-2.52-5.85-6.13-28.05-12.61-56-18.82-84-.77-3.5-.2-5.88,3.55-6.84,3.17-1,6.33-2,9.41-3.19,2.27-.91,4.49-1.19,6.56.51,4,6.48,5.5,14,8.62,20.88,1.87,4.11,2.07,9.1,6.16,12.08,3.76,4.57,5.93,10.09,8.94,15.11,1,1.73,1.43,4.22,4.31,4,4.29-.55,8.58-1,12.86-1.62C136.43,262,138.61,261.77,140.55,263.14Z"/><path class="cls-2" d="M267.92,283.71l-61.06-26.57c-2.66-1.1-6,.79-8.31-1.89-3.21-.58-6.44-1.74-9.62-1.62-8.83.32-13-5.44-16.91-11.88,5-3.7,11.16-2.27,16.74-3.35a66,66,0,0,1,10.36-1.21c3.5-.09,4-1.67,2.21-4.42-3.53-5.42-7.23-10.72-10.88-16.07-1.15-1.68-3.47-3.64-.74-6a22.2,22.2,0,0,1,8.23-1.56c11.22-.23,22.4-1,33.58-1.92,2.44-.2,5-.46,7.11,1.28l26.5,24.93c5.93,3.93,5.61,9.76,4.78,15.75-.44,9.9-.87,19.8-1.35,29.69C268.48,280.5,268.9,282.21,267.92,283.71Z"/><path class="cls-3" d="M223.25,321.53c.42,7.26.76,14.53,1.32,21.79.21,2.81-.22,4.14-3.58,4.13q-64.49-.18-129-.12a5.59,5.59,0,0,1-1-.17c-1.41-1.66-1.39-3.63-1.12-5.6,1-7.3,1.79-14.63,2.78-21.94.26-2,.61-3.92,2.64-5,3.14-.86,6.29-.11,9.38.23,14.32,1.57,28.69,2.75,43,4.43a76.14,76.14,0,0,0,8.93.4c19.73,0,39.45,0,59.18,0C218.39,319.76,221.22,319.12,223.25,321.53Z"/><path class="cls-3" d="M238.63,208.51l-49.73,3.1c-6.66,1.22-13.31,2.66-20.08.73-.83-7.28-1.63-14.57-2.53-21.85-.21-1.75-.32-3.61-1.78-5,15.09-6.32,30.75-11.08,46.07-16.76,6.67-2.48,13.38-4.81,20.08-7.21,2.93,11.05,3.83,22.48,6,33.68C237.47,199.64,238,204.09,238.63,208.51Z"/><path class="cls-4" d="M95,315.4l-4,31.76a8.5,8.5,0,0,1-1,.13c-7.06,0-6.39,1-5.4-6.26,1.19-8.84,2.08-17.72,3.35-26.55,1.18-8.2-2.11-15.59-3.88-23.24-3.16-13.63-6.62-27.19-10-40.78-1.24-8.66-4.26-16.94-5.69-25.52-.9-5.38.56-11.19-.52-16.5-1.36-6.65,1.43-10,6.64-12.85a70.93,70.93,0,0,0,6.53-4.45c.95,1.73-.14,3-1.28,3.86-3.43,2.48-3.11,5.66-2.64,9.33s2.67,7.27.9,11.13c-4.5.82-3.25,3.87-2.61,6.7l19.77,88.42A11.86,11.86,0,0,1,95,315.4Z"/><path class="cls-5" d="M96.46,30.72C109.62,55.36,119.59,81.31,128,107.9a418.86,418.86,0,0,1,11.74,47.78c.68,3.55.15,6.13-2.86,8.11-3.37-1.49-4.33-4.25-5-7.75-2.52-13.7-5.1-27.42-10-40.56-4.27-17.21-10.75-33.66-17.54-50-3.11-7.48-6.57-14.82-10-22.15C91,36.28,90.92,36.32,96.46,30.72Z"/><path class="cls-6" d="M197.11,27.75c.84,15.55-.05,31.09-.52,46.62q-1.07,35.23-4.41,70.35c-.58,6-3.7,7.28-8.31,8.05-.1-11.6,1.29-23.11,2-34.67.47-7.6,1.39-15.21,1.3-22.8-.11-9.63,1.48-19.17,1.17-28.79a8.34,8.34,0,0,1,1.27-4.73c.14-8.12.78-16.27.26-24.34C189.48,31.53,191.36,28.5,197.11,27.75Z"/><path class="cls-1" d="M189.6,61.78c.55,13.93-.73,27.81-1.44,41.7-.6,11.57-1.49,23.12-2.38,34.67-.37,4.9-.45,9.86-1.91,14.62-2.17-5.31-1.25-11-1.71-16.48A378.61,378.61,0,0,0,172,75.22Z"/><path class="cls-7" d="M95,315.4c-1.58-1.7-1-3.28.27-4.82,11.7,1.23,23.42,2.35,35.1,3.72,29.62,3.45,59.36,2.52,89.06,2.81,1.92,0,4.06-.64,5.56,1.3-.07,1.32-.23,2.58-1.73,3.12-19.71,0-39.42-.2-59.13-.11-18.91.09-37.54-3.13-56.31-4.68C103.53,316.39,99.27,315.85,95,315.4Z"/><path class="cls-8" d="M242.85,37.21c-.23-2.83-2.67-2.45-4.39-2.85-3.8-.88-7.64-1.53-11.47-2.27C239.66,22,252.37,11.85,265,1.61c2.08-1.69,4.2-1.56,7.71-1.43Z"/><path class="cls-2" d="M154.1,266.63a3.88,3.88,0,0,1-.72.63c-6.52,3.2-6.52,3.2-8.35-3.7,2.05-1.21,1.59-2.88,1.05-4.75q-7-24.3-13.88-48.66a12.69,12.69,0,0,0-2.66-4.68q-11.34-13.84-22.65-27.72c-.63-2.83,3-3.22,3.21-5.56,4.34-6.18,11.26-6.92,17.81-8.41a2.42,2.42,0,0,1,2.67.58c8.17,8.53,18.23,14.75,27.29,22.2,2.43,2,3.94,3.91,4.18,7.31.45,6.25,1.65,12.45,2.54,18.66-2.84,2.07-6.05,2.29-9.15,2,4.95,8.07,9.82,16.45,14.59,24.88a3.17,3.17,0,0,1,.22,2.4l-.24,1.88c-2.65,3.18-6.64,3.56-10.21,4.64-3.23,1-4.45,2.8-4.55,6.1C155.14,258.52,156.27,262.75,154.1,266.63Z"/><path class="cls-2" d="M78.1,215.46c-.28-1.29-.58-2.58-.85-3.87-1.5-7.35-4.37-15,3.87-20.45,3.1-2.34,6.19-4.69,9.29-7a14.43,14.43,0,0,1,4.19-2.5c5.57-1.89,9.86-.92,12.93,4.48a24,24,0,0,0,4.42,5.34c13,12.27,19.5,27.83,23,45,.68,3.38,1.84,6.67,2.78,10-3.06,2.41-6.78,2.37-10.33,2.41s-5,1.53-5.31,4.93c-.19,2.28-.56,4.55-.66,6.86-.08,1.77.09,3.68-1.74,4.85-2.7-.43-2.65-3.05-3.61-4.76-2.79-5-5.34-10.15-8-15.24-2.59-13.08-8.62-24.91-13.08-37.8-2.17,1.55-.49,3.79-2.07,4.73-2.88-2-5.28.24-7.84.95C82.75,214,80.43,214.75,78.1,215.46Z"/><path class="cls-9" d="M170.25,241.83l-16.62-27.89,11-1.41c1.47,1.28,2.85.48,4.23-.19q7.74-.69,15.47-1.36c1.58-.14,3.22-.67,4.61.63,4.86,7.26,9.59,14.62,14.65,21.75,2.63,3.71,1.34,4.66-2.47,5.06-9.69,1-19.37,2.21-29.06,3.33Z"/><path class="cls-10" d="M119.68,265.47c.42-5.12,1-10.24,1.19-15.37.1-2.18.85-2.75,2.94-2.81,4.64-.12,9.27-.56,13.91-.87,2.26-.15,2.64,1.64,3,3.16.85,3.16,1.15,6.53,2.36,9.53s-.6,3.42-2.58,4Z"/><path class="cls-11" d="M110.1,172.19c.16,2.56-2.27,3.63-3.21,5.56-.49-.65-4.09.82-1.4-1.94A40.83,40.83,0,0,1,110.1,172.19Z"/><path class="cls-12" d="M198.55,255.25c2.82.4,5.92-.39,8.31,1.9-11.84,4.76-23.66,9.57-35.52,14.26-2.08.82-2.44,2.55-3,4.25q-4.6,14.18-9.16,28.38c-.61,1.89-1.08,4.53-3.62,3.76s-1.54-3.14-.91-5.11q4.91-15.12,9.68-30.3c.72-2.32,1.73-4.05,4.24-5C178.62,263.44,188.57,259.3,198.55,255.25Z"/><path class="cls-9" d="M154.1,266.63c-.12-4.95-.09-9.91-.42-14.84-.17-2.53.92-3.45,3.09-4.06,4.44-1.24,8.83-2.67,13.24-4,3.46,15.17,3.47,15.18-10.86,21.07C157.5,265.46,155.79,266,154.1,266.63Z"/><path class="cls-13" d="M92.93,212.4c.09-2.24-3.16-5.3.07-6.53,3.76-1.44,3.65,2.87,4.49,5,3.77,9.67,7.28,19.45,11,29.14.76,2,1.27,3.74-.4,5.44-3.06.45-3.37-2-4.11-3.94Q98.44,227,92.93,212.4Z"/><path class="cls-14" d="M242.94,229.11c-.48-3.47-3.1-5.78-4.54-8.69-.82-1.68-2.93-3.41-.15-4.95,2.34-1.31,3.06,1.08,4.1,2.41,4.46,5.74,6.76,11.67,3.56,19.1-1.87,4.33-2.3,9.27-3.46,13.91-.4,1.6-1,3.49-3.17,3s-1.86-2.46-1.47-4.08C239.48,242.89,241.22,236,242.94,229.11Z"/><path class="cls-15" d="M175,237.44a4.22,4.22,0,0,1-4.51-2c-3-4.93-6-9.89-8.91-14.91-1.27-2.19-.18-3.64,2.08-3.84,6.83-.59,13.56-2.24,20.47-2a4.64,4.64,0,0,1,3.77,2c3.11,4.28,6.27,8.52,9.34,12.83,1.87,2.62,2.18,4.07-1.9,5.44C188.49,237.33,181.38,235.35,175,237.44Z"/></g></g></svg>