<svg xmlns="http://www.w3.org/2000/svg" viewBox="0 0 347.43 347.61"><defs><style>.cls-1{fill:#e9531f;}.cls-2{fill:#ffd009;}.cls-3{fill:#ffd00b;}.cls-4{fill:#ffd00a;}.cls-5{fill:#ea5621;}.cls-6{fill:#ea5521;}.cls-7{fill:#703c8f;}.cls-8{fill:#0f0603;}.cls-9{fill:#120904;}.cls-10{fill:#090401;}.cls-11{fill:#ffcf09;}.cls-12{fill:#5f2f0a;}.cls-13{fill:#e95320;}.cls-14{fill:#e9541f;}.cls-15{fill:#ea5720;}.cls-16{fill:#ea541f;}.cls-17{fill:#ea551f;}.cls-18{fill:#ea5a1f;}.cls-19{fill:#ea561f;}.cls-20{fill:#ea581f;}.cls-21{fill:#ea5c27;}.cls-22{fill:#fff;}.cls-23{fill:#040305;}.cls-24{fill:#060407;}.cls-25{fill:#fefefe;}.cls-26{fill:#e95222;}.cls-27{fill:#040404;}.cls-28{fill:#040504;}</style></defs><g id="Camada_2" data-name="Camada 2"><g id="Camada_1-2" data-name="Camada 1"><path class="cls-1" d="M.25,200.7c-.08-1.65-.23-3.31-.23-5q0-69,0-138C0,23.44,23.21.27,57.5.25,67,.24,76.42.37,85.88.44c23.87,5.52,44.74,16,59.62,36a104.9,104.9,0,0,0-4.23-32.13c-.38-1.28-.7-2.58,0-3.86H206c.81,1.47.31,2.92-.12,4.34a103.52,103.52,0,0,0-4.06,31.53c15.06-20,35.85-30.4,59.6-35.88C275.19.44,289-1,302.66,1.27,327.5,5.36,347,27.52,347.18,52.64c.33,52.91.11,105.82.11,158.74a9.32,9.32,0,0,1-.22,1.47c-2.62.39-4.27-1.52-6.14-2.75-9.94-6.55-19.93-13-30.9-18.5-.7,2.11.26,3.74.77,5.33,4.33,13.45.2,25.41-6.37,37-.75,1.31-1.76,2.43-3.54,2.26-4.51-3.45-6.45-8.76-9.29-13.34-10-16.06-20.05-32.09-29.8-48.31-2.12-3.52-4.53-4.71-8.54-4.09-39.84,6.21-79.74,12-119.59,18.14-14.6,2.24-29.2,4.45-43.82,6.5-4,.57-6.6,2.18-8.51,5.8-7,13.36-14.25,26.63-21.46,39.89C58.73,242.86,58,245.45,55,246c-2.27-.79-3.16-2.83-4.17-4.72a71.06,71.06,0,0,1-8-30.07c-.31-6.13-1.55-12.2-1.14-18.37.22-3.37-1.57-3.8-4.44-3.12A221.43,221.43,0,0,0,5.9,199.53C4.11,200.24,2.4,201.6.25,200.7Z"/><path class="cls-2" d="M301.4,235.94c10.2-14.33,13.11-29.67,5.14-47.55,15.21,7.51,28,15.79,40.53,24.46l0,6c-2.81.69-4.31-1.87-7.14-2.81,2.44,2.7,6,3.53,7.11,6.75,0,25.08.88,50.2-.15,75.24-1.11,27-25.31,49.06-52.68,49.41-21.93.27-43.87.08-65.8.08q-86.24,0-172.47,0c-28.55,0-50.2-18.16-55.35-46.12A19.27,19.27,0,0,1,.18,298q0-44.1.06-88.2c1.32-2.61,4.11-3.14,6.48-4.61-2.3.15-4.2,2.08-6.49.91,0-1.78,0-3.56,0-5.35,12.46-6,25.63-9.81,39.05-12.93,3.43-.8,3.79.38,3.86,3.3.3,13.57.48,27.18,4.83,40.27A50.69,50.69,0,0,0,55.28,246c.72,2.29-.41,3.76-2.16,5-3.12,0-3.83-2.63-5.09-4.66-1.41-2.29-1.84-5.16-4.05-7,.87,5.84,5.13,9.92,7.69,14.88C49.48,262,44.73,268.4,41.14,275c8.21-1.34,17-4.46,26.25-5.51,2.72.11,4.87,1.69,7.34,3.14-.29-1.68-2.31-2.91-.55-4.5a10.69,10.69,0,0,1,6.44-1.23c15.33,8.38,26.07,20.59,31.18,37.46,1.61,5.34,1.62,5.43,5.49,1.44,4.84-5,10.41-9.19,15.29-14.16,8.12-8.29,13-17.86,13-29.64,0-1.64-.08-3.34,1.13-4.71a4.69,4.69,0,0,1,4.33-.81c3.08,2.46,1.53,6.08,2.22,9.16.72-3.16-.86-6.67,1.66-9.49a33.86,33.86,0,0,1,15.43-1.6c27.33,11.42,51.49,26.62,64.88,55.37,4.83-5.49,9.36-10.69,14.06-15.73,11.17-12,22.73-23.64,34-35.55a5.48,5.48,0,0,1,2.49-1.59c9.66,1,19.27,2.33,29.06,4-3.67-6.58-7.84-12.73-11.58-19.13C302.17,240.05,300.65,238.32,301.4,235.94Z"/><path class="cls-3" d="M261.45.44c-7.94,3.3-16.27,5.6-24,9.39-17.36,8.48-24.85,14.57-36.56,30.53C200,26.14,201.52,13.12,206,.45Z"/><path class="cls-4" d="M141.32.45c4.56,12.62,5.87,25.66,4.91,39.26C138.56,27.2,127.35,19,114.82,12.28c-9.25-5-19.2-8.12-28.94-11.84Z"/><path class="cls-5" d="M347.07,222.82c-2.16-1.48-4.37-2.9-6.46-4.49-1.2-.9-3.63-1.73-2.56-3.48,1.32-2.17,2.78.24,4.05.91,1.73.91,3.34,2.07,5,3.12Z"/><path class="cls-6" d="M.23,206.05c2.45-1,4.9-2,7.36-2.94.82-.33,1.7-.32,2.13.57s-.24,1.57-1,1.95c-2.81,1.4-5.65,2.75-8.48,4.12C.24,208.52.23,207.29.23,206.05Z"/><path class="cls-7" d="M52.77,250.93l2.51-5c8.62-15.82,17.3-31.6,25.8-47.48A7.94,7.94,0,0,1,87.55,194q67.77-10,135.53-20.19c9.82-1.46,19.66-2.86,29.4-4.74,5-1,7.84.14,10.6,4.78,11.76,19.77,24,39.25,36.11,58.82.7,1.13,1.47,2.2,2.21,3.3l15.85,26.62-32.31-4.63c-5.22,2.35-10.56.41-15.71,0-14.57-1.17-29.13-2-43.74-1.71-15.77.29-31.54-.57-47.3.49a21.86,21.86,0,0,1-6.36-.93c-5.78-.47-11.47.51-17.18,1.12a3.28,3.28,0,0,1-3.27.28l-4.81.59c-4.56,3.12-10,2.27-15,2.93-14.66,1.91-29.25,4.29-43.79,6.94-2.29.42-4.58.84-6.88.11-2.61-.2-5,.85-7.48,1.35-1.15,2.29-3.23.72-4.83,1.17l-29.37,6.43,11.78-23A2.66,2.66,0,0,1,52.77,250.93Z"/><path class="cls-2" d="M198.68,98.06c-1.06-6.34-1.06-6.34,5.43-7.29,8.14-1.17,8.11-1.18,10.17-9.44,2.32-9.33,5.95-17.45,16.28-20.81,5-1.63,5.91-6.87,6.87-11.4,2-9.39,1.91-9.43,11.28-6.83a32,32,0,0,1,12.82,7.4c2.85,2.57,5.6,2.75,9.1,1.69,7-2.12,11.67-6.68,14.93-13.36,10,9.24,18.65,18.76,21.94,31.87.84,3.35,2.51,3.8,5.29,3.18l1-.19c9.4-1.79,9.79-1.23,9.26,8.53-1,17.75-4.58,34.75-13.21,50.46-.94,1.73-2,3.39-3,5.09a54.16,54.16,0,0,1-33.21,19.3c-30.63,5.51-54.7-8.33-67-35.74C203.34,113.27,201,105.65,198.68,98.06Z"/><path class="cls-2" d="M29,85.05c0-3.59.06-7.17,0-10.76,0-2.13.57-2.9,2.95-2.4,3.38.7,7.34,2.08,10.18,1,3.14-1.23,2.29-6.11,3.78-9.22C50.26,54.51,56.57,46.93,63.7,39.9c2-2,2.9-1.36,3.87.81,2,4.47,5.62,7.35,9.94,9.33,4.84,2.22,9.24,3.33,13.89-1.43,4.84-5,11.55-6.88,18.44-7.86,2.24-.32,2.89.26,3.18,2.39A65.54,65.54,0,0,0,115,52.35c1.29,4.48,3.71,7.63,8.58,9.4,8.34,3,11.41,10.51,13.45,18.47,2.58,10.06,2.58,10.3,12.66,10.67,4.37.16,4.91,1.16,3.25,5.08-3.41,8.08-6.25,16.4-9.49,24.55S134.28,135,129.27,142c-1.8,1.73-3.74,3.3-5.57,5-19.91,16.09-55.31,13.7-75.23-5.5C38,131.4,32.74,118.23,29.89,104.17,28.62,97.9,26.9,91.53,29,85.05Z"/><path class="cls-2" d="M171.75,134c-2.17-13.53-4.23-27.09-6.59-40.59-.57-3.25-.17-4,3.28-3.57A155.67,155.67,0,0,0,186.24,91c3.86,0,4.8,1.2,4,5-2.74,12.93-5.17,25.92-7.72,38.88C178.72,137.2,175.11,137.27,171.75,134Z"/><path class="cls-8" d="M29,85.05A105.07,105.07,0,0,0,37.81,124C51.1,154.63,93,165.47,120.32,147.91c1.1-.71,2.24-1.38,3.37-2.06,1-.29,1.27.17,1.1,1.08-16.64,15.76-36.22,19.1-57.52,12.63-21.67-6.58-34-21.93-38.16-44a104.92,104.92,0,0,1-1.76-25.69C27.45,88.16,26.88,86.15,29,85.05Z"/><path class="cls-9" d="M198.68,98.06c3.75,5.71,5.17,12.39,7.72,18.6,8.17,19.94,21.5,34.26,43.32,38.46,20.16,3.87,38.06-1.39,53.23-15.44,1.15-1.06,1.81-2.92,3.86-2.72-9,14.34-22.73,21.55-38.85,23.88-31.5,4.57-56.37-12.41-65.23-43.95C201,110.72,199.14,104.52,198.68,98.06Z"/><path class="cls-10" d="M171.75,134c3.53,1.06,7.15.93,10.77.85l2.78.2c5.64-.65,11.35-2,16.49,1.85-3.46,3.3-7,6.55-10.35,9.93-1.4,1.38-3,1.2-4.63,1.07-7.92-.61-15.84-1.35-23.76-1.91a4.31,4.31,0,0,1-3.63-2.09c-2.5-3.68-5.09-7.3-7.65-10.94,5.85-2.82,11.44-.74,17.06.87Z"/><path class="cls-11" d="M168.83,133.84,151.77,133c.83-9.44,4.42-18.23,6.33-27.42a83.16,83.16,0,0,1,3.81-12.75C164.55,106.48,167.46,120,168.83,133.84Z"/><path class="cls-11" d="M201.79,136.91l-16.49-1.85c2.2-11.69,4.39-23.38,6.76-36,2.35,4.26,2.74,8.29,3.78,12.08,2,7.34,3.93,14.69,5.9,22C202.07,134.44,203,135.66,201.79,136.91Z"/><path class="cls-12" d="M124.79,146.93l-1.1-1.08c1.75-1.44,3-3.6,5.58-3.87A11.13,11.13,0,0,1,124.79,146.93Z"/><path class="cls-13" d="M171.83,255.77a636.93,636.93,0,0,1,113.11,2.16c-7.11,7.64-14.12,15.37-21.37,22.87-9.78,10.13-19.52,20.28-28.8,31.73-2.93-6.44-5.57-12.6-9.66-18-11-14.44-25.58-24.37-41.35-32.78C179.83,259.68,175.81,257.77,171.83,255.77Z"/><path class="cls-1" d="M80.93,267.74a513.87,513.87,0,0,1,65.64-10c1.53,15.58-5,27.67-16.25,37.74-5.81,5.19-11.5,10.5-17.68,16.16-1.92-6.45-3.48-12.63-6.54-18.28C100.16,282.39,91.15,274.49,80.93,267.74Z"/><path class="cls-14" d="M23.3,201.81c-.08,0-1.26-.13-1.1-1,.29-1.65-.54-3.87,1.49-4.84,4.12-2,8.77-.85,13.07-2,.94-.26,1.26.82,1.3,1.69.06,1.25-.23,2.42-1.56,2.78C32.37,199.53,28.22,200.55,23.3,201.81Z"/><path class="cls-15" d="M52.77,250.93,51,253.72c-4.27-3.42-6.29-8.33-8.62-13-.53-1.06-1.72-2.53.05-3.4,1.61-.79,2.88.32,3.59,1.72,1.27,2.48,2.38,5.05,3.55,7.58A10.68,10.68,0,0,0,52.77,250.93Z"/><path class="cls-16" d="M228.36,325.46c.13-1.24.25-3.65,1.62-2.79,4.71,3,4.48-2,6.36-3.49.5-.4.77-1.08,1.26-1.51.88-.77,1.48-2.66,3.08-1.3,1.26,1.07,0,2-.61,2.95-1.84,2.73-3.73,5.43-5.51,8.19-1,1.56-2.23,2.44-4.09,1.93C228.4,328.88,228.42,327.13,228.36,325.46Z"/><path class="cls-17" d="M148.22,282.65c1.66.51,1.62,1.52.93,2.69A61.37,61.37,0,0,1,140,297.57c-.69.7-1.54,1.4-2.56.53-.83-.7-.39-1.56.1-2.18,3.26-4.13,6.92-7.95,9.5-12.59C147.24,283,147.85,282.85,148.22,282.65Z"/><path class="cls-18" d="M40.16,220.88c-.18,1,.84,2.91-1,3.15s-1.76-1.69-1.92-2.91c-.49-4-.9-7.9-1.2-11.86-.09-1.19-.59-3.06,1.36-3.12,1.34,0,1.49,1.52,1.61,2.7C39.37,212.79,39.76,216.75,40.16,220.88Z"/><path class="cls-16" d="M318.16,219.29a63.57,63.57,0,0,1-5.12,13.1c-.52,1-1.25,2.28-2.65,1.48-1.19-.69-.37-1.77.08-2.6a40.32,40.32,0,0,0,4.45-12.6c.19-1.09.65-2.49,2.19-2.12S318.23,218.32,318.16,219.29Z"/><path class="cls-19" d="M249.94,306.42c-1.61-.55-1.8-1.64-.85-2.68,3.36-3.64,6.83-7.18,10.29-10.73a1.53,1.53,0,0,1,2.22-.17c.86.77.27,1.57-.25,2.14q-5,5.47-10.15,10.86C250.9,306.16,250.33,306.24,249.94,306.42Z"/><path class="cls-16" d="M115.37,320c-1.35-.62-1.75-1.61-.64-2.69,3.56-3.46,7.19-6.85,10.85-10.2a2,2,0,0,1,1.76-.25,1.11,1.11,0,0,1,.33,1.71c-3.89,3.8-7.86,7.53-11.81,11.27C115.75,320,115.55,320,115.37,320Z"/><path class="cls-19" d="M167.19,259.82A84.36,84.36,0,0,1,181.92,267a1.45,1.45,0,0,1,.19,1.31,1.16,1.16,0,0,1-1.59.74c-4.77-2.25-9.54-4.51-14.28-6.83a1.14,1.14,0,0,1-.27-1.73C166.2,260.15,166.77,260,167.19,259.82Z"/><path class="cls-14" d="M284,270.89a8.25,8.25,0,0,1-.83,1.36c-3.31,3.44-6.65,6.85-10,10.27-.6.61-1.38,1.2-2.15.62-1-.74-.68-1.77.07-2.56,3.3-3.44,6.64-6.86,10-10.27a1.75,1.75,0,0,1,2.2-.53C283.62,270,283.76,270.52,284,270.89Z"/><path class="cls-16" d="M195.25,274.33c2.89,2.06,6,4,8.7,6.33,1.6,1.37,5.31,2.93,3.83,4.81-2,2.56-3.57-1.36-5.3-2.38-2.69-1.59-5.13-3.6-7.67-5.44-.83-.6-1.59-1.31-1.06-2.44C193.92,274.87,194.54,274.73,195.25,274.33Z"/><path class="cls-16" d="M218.39,294.83a21.25,21.25,0,0,1,1.7,1.62,54.36,54.36,0,0,1,6.8,10.86c.45.9,1,2,0,2.68s-1.86-.12-2.35-1a82,82,0,0,0-7.39-11.67C216.23,296.19,216.67,295.19,218.39,294.83Z"/><path class="cls-1" d="M99.71,293.47c-.14.22-.37.88-.66.92-.58.06-1.48,0-1.76-.4A85.91,85.91,0,0,0,88,283.09a1.3,1.3,0,0,1-.29-1.76,1.48,1.48,0,0,1,1.73-.56C91.22,281.21,99.78,291.63,99.71,293.47Z"/><path class="cls-20" d="M107.91,317.34c0,1.91,0,2.4,0,2.9-.1,1.43.31,3.65-1.56,3.62s-1.49-2.26-1.44-3.67a53.13,53.13,0,0,0-1.09-10.83c-.16-.92-.43-2.22.76-2.55,1.59-.43,1.92,1,2.1,2.12C107.23,312.18,107.64,315.45,107.91,317.34Z"/><path class="cls-19" d="M151.38,257.17l3.28-.28c0,3.26.05,6.52,0,9.79,0,1.13,0,2.65-1.42,2.7-2,.06-1.5-1.74-1.56-2.94C151.55,263.36,151.48,260.26,151.38,257.17Z"/><path class="cls-1" d="M315.77,199c3.59,2.16,6.81,4.06,10,6,.7.43,1.4,1,1.11,2-.22.73-.91.81-1.6.77C322.5,207.61,316.65,202.53,315.77,199Z"/><path class="cls-21" d="M68.62,270.26l4.84-1.18c.75,1.9,5,2.22,3.46,4.38-1.74,2.39-3.79-1-5.74-1.74A18.7,18.7,0,0,1,68.62,270.26Z"/><path class="cls-22" d="M274.71,219.14c.71.41,1.71.63,2.09,1.24,5.25,8.36,10.41,16.77,15.95,25.75-77.53-8.92-153.55-4.42-229.41,12.3A40.21,40.21,0,0,1,69.18,248c12.83-11,26.54-20.47,43.53-24,.6-.27-.45-.68,0-.16.15.19.06.33-.28.4-12,2.66-19.55-2.17-22.63-14.41.33-2.7,1.77-3.73,4.56-4.14q63-9.32,125.85-18.89c9.51-1.43,19.06-2.6,28.48-4.46,4.39-.87,5.83.51,5.88,4.5,3.33,3.95,3.31,8.89,3.83,13.6.29,2.55-1.69,4.14-3.58,5.62s-4.34,2.4-6,5.34c6.9,1.88,13.6,3.42,20.25,5.18C271,217.14,273.43,217,274.71,219.14Z"/><path class="cls-23" d="M89.77,209.86a9.19,9.19,0,0,1,.64.76c2.85,4,5,9.09,8.75,11.87s9.62.66,14.88,1.45c-1.34,1.6-3.1,1.82-4.68,2.16-13,2.87-23.08,11.08-33.89,18-2.09,1.33-4.19,2.63-6.29,3.95Q79.48,229,89.77,209.86Z"/><path class="cls-24" d="M274.71,219.14l-30.25-7.22c4.1-2.94,7.31-5.38,10.66-7.6,1.89-1.25,2.68-2.66,2.14-4.93-1-4.15-1.82-8.34-2.72-12.52.59.18,1.47.18,1.71.57,6.16,10,12.24,20,18.36,30C275,218.07,275.26,218.54,274.71,219.14Z"/><path class="cls-7" d="M278.23,86.2l6.49-1.8c4,3.3,4.4,8.12,4.78,12.66,1.45,17.61-12.2,34.61-29.45,37.05-18.94,2.67-36.41-8.92-40.3-26.84-.44-2-1.46-4.17.17-6.17,2.85-1.81,6.24-1.8,9.33-2.82,2.52,1.73,2.68,4.84,4.15,7.2,3.52,5.66,5.74,6.74,12.29,5.86,6.39-.86,12.76-1.86,19.17-2.55,9.62-1,13.08-4.91,13.16-14.83C278,91.38,276.61,88.74,278.23,86.2Z"/><path class="cls-25" d="M278.23,86.2a26.55,26.55,0,0,1,1,10.29C278.37,106,275.25,109,265.86,110c-7.05.75-14.14,1.44-21.07,2.87-5.68,1.18-9.13-1-11.85-5.49a28,28,0,0,1-3.69-9.12c1.6-.24,3.07-1.59,4.83-.61,1.92.69,2.38,2.65,3.5,4,4,5,8.8,6.71,14.4,5.15A14,14,0,0,0,262.07,94.7c.18-1.64.09-3.32,1.13-4.74A78.55,78.55,0,0,1,278.23,86.2Z"/><path class="cls-26" d="M219.92,101.1c1.82,15.23,9.56,26.15,24.36,30.68,13.29,4.06,25.56.86,34.9-9.56,10-11.13,11.88-24,5.54-37.82,2.76-1.17,4.49-.71,5.47,2.53,4.21,13.94,2,26.63-7.69,37.51-10.74,12-24.43,15.55-39.69,11.07-14.45-4.23-22.85-14.62-26.13-29.15C216.14,104,215.3,100.65,219.92,101.1Z"/><path class="cls-27" d="M263.2,90c.87,9-1.95,14.66-8.7,17.54a15,15,0,0,1-17.18-3.79,14.32,14.32,0,0,1-3.24-6C243.55,94.17,253.47,92.42,263.2,90Z"/><path class="cls-7" d="M66.87,84.43l6.33,1.75c1,1.33.68,2.8.52,4.29-1.38,12.37,5.88,23.13,17.74,26.38,11.23,3.07,23.07-2.9,28.11-14.1.71-1.56.57-3.71,2.68-4.47,3.13.92,6.48,1.1,9.4,2.76,1.72,6.31-.85,11.83-4.16,16.63-10,14.52-22.34,19.29-38.15,15.84A35,35,0,0,1,62,99.84C61.91,94.51,61.61,88.4,66.87,84.43Z"/><path class="cls-25" d="M122.25,98.28c-3.59,13.86-15,22.28-28,20.54-12.76-1.73-22.52-13-22.09-25.8a57.28,57.28,0,0,1,1-6.84,72.1,72.1,0,0,1,15.17,3.76c.84,1.51.68,3.2.92,4.82.93,6.33,4.84,10.89,10.62,12.26,6.06,1.45,10.58-1,14.16-5.74,1.09-1.43,1.82-3.16,3.54-4Z"/><path class="cls-26" d="M66.87,84.43c-6,13-4.66,25.23,4.28,36.22,9.13,11.22,21.27,15,35.16,11.3,13.68-3.7,21.87-13,24.57-27,.25-1.3.51-2.6.77-3.9,2.72-.2,3.68.63,3.38,3.72-1.52,15.85-17.16,30.91-33.09,32.36C79.25,139.18,61.42,123.48,59.26,102c-.51-5.06.78-9.87,1.89-14.71C61.91,83.91,63.77,83,66.87,84.43Z"/><path class="cls-28" d="M117.61,97.24c-3.27,9.09-10.31,13.19-18.78,10.94-7.7-2.05-11.9-9.37-10.46-18.24Z"/></g></g></svg>