<svg xmlns="http://www.w3.org/2000/svg" viewBox="0 0 347.94 347.28"><defs><style>.cls-1{fill:#e9531f;}.cls-2{fill:#375ea9;}.cls-3{fill:#703c8f;}.cls-4{fill:#ffd009;}.cls-5{fill:#040205;}.cls-6{fill:#e95320;}.cls-7{fill:#07060a;}.cls-8{fill:#090911;}.cls-9{fill:#14151d;}.cls-10{fill:#e9501f;}.cls-11{fill:#1b0f11;}.cls-12{fill:#e9511f;}.cls-13{fill:#020204;}.cls-14{fill:#3f4b9a;}.cls-15{fill:#3e4b9a;}.cls-16{fill:#ffcf0a;}.cls-17{fill:#020205;}.cls-18{fill:#030204;}.cls-19{fill:#06040b;}.cls-20{fill:#040308;}</style></defs><g id="Camada_2" data-name="Camada 2"><g id="Camada_1-2" data-name="Camada 1"><path class="cls-1" d="M30.88,341.45C11.37,331.85.94,315.7.43,294.45c-.81-33.61-.15-67.26-.11-100.9a14.94,14.94,0,0,1,13.62,0q31.7.67,63.39,1.3a10.53,10.53,0,0,0,5.72-1.36c1.7-2,3.88-2.17,6.24-1.66,3.48.7,6.9.05,10.35-.38,2.45-.31,5-.57,7.25.81,1.11,1.14,1.31,2.65,1.6,4.1,6,28.88,11.88,57.77,17.57,86.71a13,13,0,0,1,.39,4.43c-.67,2.17-2.72,2.82-4.39,3.77q-43,24.48-86.06,48.86C34.4,341,32.86,342,30.88,341.45Z"/><path class="cls-2" d="M262.82,188.32c9.29,3,18.8,3.09,28.46,2.64,12.41-.57,24.85-.41,37.28-.63,1.6,0,3.33.49,4.79-.66a15,15,0,0,1,14,0,7,7,0,0,1,.32,1.45c-.12,35.65,1.05,71.32-.57,106.94-.79,17.3-9.58,31-24.55,40.34-5.61-.92-9.95-4.5-14.67-7.17q-57.66-32.64-115.26-65.4a25.48,25.48,0,0,1-2.58-1.5c-2.49-1.85-2.58-3.63.08-5.47,4.12-2.85,8.71-4.84,13-7.27,8.84-4.94,17.58-10.08,26.64-14.62.83-.44,1.67-.89,2.47-1.41,6.55-3.74,13.26-7.21,19.74-11.09a9.82,9.82,0,0,0,3.73-3.12c4.39-8.15,8.07-16.42,5.78-26.08C260.93,192.85,259.71,190.11,262.82,188.32Z"/><path class="cls-3" d="M313.46,343.14a42.88,42.88,0,0,1-18.78,4.11q-120.78.06-241.58,0a34.33,34.33,0,0,1-12.68-2.13c.19-2.19,2-2.9,3.56-3.79,23.13-13,46.43-25.77,69.57-38.79,17.36-9.76,34.15-20.52,51.67-30,16.9-9.12,10.15-9.31,26.91,0,33.47,18.69,66.71,37.78,100.06,56.69,5.77,3.28,11.62,6.41,17.35,9.76C311.18,340,313.29,340.69,313.46,343.14Z"/><path class="cls-1" d="M262.82,188.32c-1.52,2.54-.58,5,.18,7.5,2.73,8.85-2.44,16.32-4.35,24.35-.18.74-1.48,1.21-2.25,1.81-2.8,2.37-6.22,3.65-9.39,5.35-1.18.64-2.56,1-3.42-.67-2.31-10.22-2.51-20.69-3.53-31.06q-3.39-34.59-6.69-69.19c-1-10.71-1.9-21.44-3-32.14a4.74,4.74,0,0,1,1.15-4.16c4.93-1.37,10-2.52,14.78-4.21,3.16-1.11,4.05.18,5.46,2.72,4.39,7.95,4.08,16.27,2.44,24.63-.76,3.9.75,4.78,4,5.42,8.87,1.75,8.46,1.93,10.44,10.61,1.59,7-.07,13.12-3.23,19.06-1.47,2.78-1.8,5.22.27,7.67,4.78,5.67,4.88,11.59,1.85,18.21C265.49,178.7,264.36,183.6,262.82,188.32Z"/><path class="cls-4" d="M231.54,90.11q2.81,29.19,5.6,58.38,2.13,22.27,4.22,44.54,1.59,17.08,3.13,34.16c-3.42,4.49-8.53,5.64-13.6,6.89-4.43-1.39-6.68-4.56-7.61-9C217,195,210.56,165,204.18,134.92A9.59,9.59,0,0,1,204,130c3.66-11.89,6.42-24.06,10.77-35.75,1.22-1.63,2.89-1.18,4.51-.95Z"/><path class="cls-3" d="M250.85,72.84l23.37-36.4C280.94,26,287.9,15.66,294.23,5c2.5-4.22,5.07-5,9.55-3.95,20.94,5,34.82,17.54,41.57,38,.86,2.61.5,3.62-2.29,4.52-30.12,9.67-60.19,19.5-90.27,29.27A10.09,10.09,0,0,1,250.85,72.84Z"/><path class="cls-5" d="M313.46,343.14c-13.14-7.6-26.24-15.27-39.43-22.77Q227.92,294.15,181.76,268c-2.07-1.18-3.57-1.47-5.75-.2-44.45,25.78-89,51.35-134.08,76.06a9.9,9.9,0,0,0-1.5,1.27,26.08,26.08,0,0,1-9.55-3.68l91.68-51.88c1-.57,2.07-1.05,3.1-1.57,5.06-3.54,10-7.35,16-9.22,1.48.1,1.86,1.68,3.09,2.3,1.23-1.54-.39-3.52.78-5,14.08-8.92,28.13-17.89,43.6-24.3a4.41,4.41,0,0,0,4.49-1.92,349.29,349.29,0,0,1,32.61-15c1.89.26,3.43,1,3.85,3.07l-42.42,23.63c8.91,5.11,17.11,9.87,25.36,14.55q53.31,30.19,106.64,60.37c1,.57,1.92,1.28,2.89,1.92A28.64,28.64,0,0,1,313.46,343.14Z"/><path class="cls-3" d="M347.32,189.64l-14,0-50.51-41.48c10.82-1.2,20.74-2.34,30.67-3.4,10.2-1.09,20.41-2.11,30.62-3.15,1.78-.18,3.67-.79,3.6,2.31C347.41,159.18,348.2,174.42,347.32,189.64Z"/><path class="cls-3" d="M74.76,75.68c-24.1-2.57-47.88-5.11-71.67-7.62-1.58-.17-2.91-.23-3-2.38C-.39,51.94.6,38.53,8,26.36c1.33-2.17,2.1-2.19,4-.68Q42.86,50,73.78,74.19A6.65,6.65,0,0,1,74.76,75.68Z"/><path class="cls-2" d="M84.92,120.25c.27-4.8,5.09-3.39,7.39-5.42,1-1.15,2.41-1.15,3.79-1.11,11.62,3.19,22.91,7.38,34.27,11.38,6.53,2.31,13.14,4.43,19.74,6.55,1.51.48,4.87.49,2.63,3.86-3.83,1.38-7.54-.12-11.29-.56-4.93-.59-5.53-.22-6.25,4.47-1,6.62-1,6.54,5.52,8.48,2,.61,4.88.42,5.09,3.69-1.53,1.71-3.56,1.58-5.52,1.37-15.71-1.73-31.49-2.78-47.18-4.68-2-.24-4-.38-5.58-1.72-5-6.31-6.26-13.37-4.12-21C83.9,123.75,84.29,122,84.92,120.25Z"/><path class="cls-3" d="M86.4,59.23q-8-4.84-15.94-9.71c-17.11-10.45-34.19-21-51.37-31.3-2.66-1.6-2.72-2.52-.47-4.5A56.71,56.71,0,0,1,48.56.26a3.89,3.89,0,0,1,4.51,2q17,28.05,34.14,56Z"/><path class="cls-3" d="M60.47,136.16c-19.91,3.61-38.6,7-57.28,10.41-1.89.35-3.13.37-3.11-2.21.08-14.87,0-29.75,0-45.51Z"/><path class="cls-2" d="M99.32,88.82c.77-6.14,3.12-7.86,8.58-6.26L136,90.8c.28,1,.25,2.21,1.46,2.76,5.23,3.38,11.06,5.61,16.47,8.65,2.11,1.18,4.63,2.41,2.47,5.59a2.79,2.79,0,0,1-1.32.57A44,44,0,0,1,144.48,106c-2.93-.91-4.58-.22-5.5,2.92-2.1,7.09-2,7.24,4.84,10.09,3.15,1.3,6.81,1.49,9.42,4.07a5.38,5.38,0,0,1-1.23,6c-1.75,1.11-3.52.57-5.24,0-15-5.09-30.2-9.65-45-15.29-1.38-.53-2.83-1-3.69-2.34C95.91,103.72,94.54,96.1,99.32,88.82Z"/><path class="cls-3" d="M283.85,126.8,347.7,85.36v39.35c0,1.84.33,3.57-2.64,3.56-20.31-.11-40.61-.06-60.92-.06Z"/><path class="cls-3" d="M13.94,193.53l-13.62,0C.25,181,.23,168.36.07,155.76c0-2.48,1-3.06,3.24-3,15.23.06,30.47,0,46.11,0Z"/><path class="cls-3" d="M94.19,0h29.2c6.46,0,12.92,0,19.38,0,1.32,0,3.14-.6,2.51,2.14-3.1,13.48-6.08,27-9.18,40.86Z"/><path class="cls-3" d="M251.15,0,204.67,35.8c-3-11.69-5.82-22.72-8.7-33.72-.6-2.26.83-2,2.16-2Z"/><path class="cls-2" d="M219.29,93.29l-3.53.92c-2-.08-3.13,1.45-4.5,2.52-6.32,1.86-12.29,4.23-14.72,11.16-4.42,12.61-14.68,15.81-26.49,16.57a1.9,1.9,0,0,1-1.67-1.22c2.15-4.71,6.42-7.41,10-10.76,1.62-1.5,4.89-2.43,2.74-5.81-2.87-4.51-5.9-5.52-9.74-3.62-3.67,1.82-6.73,4.9-11.06,5.36a1.5,1.5,0,0,1-1-.94c5.43-6.34,11-12.49,18.45-16.62l7-5.44c2.93-2.27,5.56-4.24,9.76-5C206.53,78.45,212.86,85.63,219.29,93.29Z"/><path class="cls-6" d="M177.84,90.85q-9.1,8.49-18.22,17a2.45,2.45,0,0,1-3.75,0c1.54-2.68-.21-3.67-2.27-4.72-5.79-3-11.89-5.29-17.32-8.94-.29-3.24,3.29-3.47,4.39-5.63,3.94-3.73,8.36-4.09,13.52-2.74C162,87.8,170,89.19,177.84,90.85Z"/><path class="cls-7" d="M84.92,120.25c-1.63,8.83-2.19,17.53,3.12,25.5.84,1.77.5,3.65.52,5.49a2.08,2.08,0,0,1-.23.95c-5,6.62-3.87,13.28-.13,20C91,178.5,90.75,185,89.42,191.61l-.62.57-5.75,1.29c1.94-7.51-1.25-14-4.52-20.24-2.18-4.17-2.3-7.69.61-11.31,3.4-4.25,4.15-8.43,1-13.4-3.47-5.4-3.16-11.25-.32-17C81.6,127.81,83.21,124,84.92,120.25Z"/><path class="cls-8" d="M99.32,88.82c-3,7.6-1.26,15.3-.53,23-.25,1.92-1.81,2.38-3.29,2.93l-3.19.1A27.69,27.69,0,0,1,97.48,90C98,89.37,98.27,88.58,99.32,88.82Z"/><path class="cls-9" d="M140.67,88.51c-.31,2.78-3,3.66-4.39,5.63-.93-.23-2.33-.18-2.24-1.42.05-.68,1.24-1.28,1.91-1.92Z"/><path class="cls-4" d="M141.84,279.23c-5.56,2.63-10.18,7-16.17,8.77L106.5,192.69a5.75,5.75,0,0,1,6.14-1.68c2.14,1.12,2.62,3.31,3.3,5.32,8.58,25.58,17,51.19,25.58,76.78C142.17,275.07,143.38,277.11,141.84,279.23Z"/><path class="cls-2" d="M113,192a17.63,17.63,0,0,0-6.5.69c-4.16-.52-8.21.7-12.32.77-1.84,0-4,1-5.38-1.28h.25c.75-4.58.25-9.2.3-13.79,0-2.1.55-3.82,2.78-3.87,13.3-.32,26.61-1.41,39.88.57.65.09-.21,0,.41.24.83,3-1.86,2.45-3.21,2.83-2.51.71-4.1,1.78-4.1,4.69s1.28,4.24,3.94,4.8a6,6,0,0,1,3.87,2,1.91,1.91,0,0,1-1.36,1.84A139,139,0,0,1,117.15,193,10.6,10.6,0,0,1,113,192Z"/><path class="cls-10" d="M169,123l.89.84c2.1,4.26,1.19,8.78.87,13.16-.76,10.4-1.14,20.82-1.82,31.22-.38,5.78,1.76,9.91,6.09,13.31,9,7.07,7.43,8.76,10.9-3.09,7.42-25.29,14.75-50.61,22.16-75.91.68-2.35,1-4.94,3.17-6.6,1.13-1.54,1.32-5.55,4.51-1.72-2.28,7.94-4.1,16.06-7,23.78-3.47,9.35-3.3,18.35-1.1,28,6,26.24,11.4,52.63,16.85,79,.87,4.24,3.55,6.51,6.82,8.57,1.33.57,2,1.38,1.2,2.86l-2.51,1.49-3.52-2.49c-3.95-1.6-6.67-4.89-9.66-7.63-15.23-13.95-30.77-27.57-46-41.58-7.53-6.95-15.33-13.59-22.76-20.66-.83-.8-1.85-1.41-2.26-2.58-.33-1.94-.62-3.86,1.82-4.73,6.28,2.4,9.62,8.46,15,11.58a14.85,14.85,0,0,1-.33-6c1-11.91,1.76-23.82,1.94-35.77,0-2.5.23-5,2-7C168.22,120.27,168.84,121.32,169,123Z"/><path class="cls-11" d="M232.56,236.41l-1.2-2.86,13.13-6.36L256.4,222c.08,1.37-.82,2-1.87,2.59Q243.53,230.48,232.56,236.41Z"/><path class="cls-4" d="M146.74,163.18c7.55,6.68,15.15,13.31,22.64,20q27.28,24.59,54.49,49.26a38.87,38.87,0,0,1,2.66,2.92L193.79,250.6c-1.85.64-2.68-.79-3.67-1.83-11.62-12.21-23-24.6-34.92-36.57-6.86-6.92-13-14.49-20.17-21.17a6.35,6.35,0,0,1-1.91-2.85A29.75,29.75,0,0,1,137,176a4.23,4.23,0,0,1,2.05-1.27c5.72-1.61,5.72-1.61,5.37-7.67C144.63,165.45,144.67,163.71,146.74,163.18Z"/><path class="cls-4" d="M189.6,252.48c-15.28,6.77-29.18,16.07-43.76,24.13-1.82.12-2-1.39-2.51-2.56-1.9-4.77-3.49-9.65-5.07-14.54a10,10,0,0,1-.26-5.39c2.94-12.91,5.63-25.88,8.69-38.76,1.56-6.54,3.33-7.12,7.91-2.12,11,12,22.53,23.32,33.4,35.36C189,249.67,190.19,250.72,189.6,252.48Z"/><path class="cls-12" d="M189.6,252.48C180.66,243,171.76,233.4,162.74,224c-4.28-4.47-8-9.55-13.55-13.66-3.5,15.45-6.92,30.35-10.21,45.27-.55,2.53,1,4.8,1.81,7.12,1.57,4.68,3.36,9.28,5.05,13.92.06.33.09.65.16,1,.38,1.66,1.94,3.71-.28,4.81-2.94,1.45-2.54-2.12-3.89-3.16-2.7-11.11-7-21.74-10.5-32.58-6-18.26-12.21-36.44-18.34-54.65l4-.24c1.69.78,2.22,2.38,2.74,4,5.43,16.34,11,32.64,16.37,49.24,2.81-11.34,5-22.66,7.71-33.87a6.93,6.93,0,0,0-2.08-7.21c-3-2.86-5.24-6.41-8.22-9.31-1.06-1-2.15-2.13-2-3.82l1.31-.93A1.3,1.3,0,0,1,134,188.5l56.28,58.59c1.14,1.19,2.31,2.34,3.47,3.51C193.53,253.75,192,254.08,189.6,252.48Z"/><path class="cls-13" d="M145.68,150.83c-3.6-1-7.16-2.19-10.8-3-1.69-.38-2.21-1-1.89-2.65a48.63,48.63,0,0,0,1.32-8.23c.06-4.53,2.23-4.27,5.69-3.58,4.13.82,8.3,2,12.61,1.47,1,.47,2.29.24,2.79,1.54.29,5.38.36,10.73-2.45,15.63C150.24,153.39,147.84,152.84,145.68,150.83Z"/><path class="cls-14" d="M145.68,150.83c2.46-.35,4.57,1.13,6.93,1.3,2.39,2.17,1.26,3.53-1.05,4.62-7.14,1.21-14.23-.09-21.3-.67-11.74-1-23.45-2.19-35.17-3.33-2.4-.23-5-.1-7-2-1.36-1.67-.26-3.34,0-5,7.15,2.21,14.65,1.88,22,2.89,10.11,1.38,20.31,2.1,30.48,3C142.21,151.79,144.15,152.36,145.68,150.83Z"/><path class="cls-15" d="M154.62,135.58l-2-.77c.85-1.36-.57-1.33-1.1-1.51q-28-9.33-56-18.57l3.29-2.93c12.72,4.2,25.42,8.47,38.18,12.57,4.87,1.56,9.55,3.78,14.69,4.45,2.44-.27,4.37.63,5.13,3A2.81,2.81,0,0,1,154.62,135.58Z"/><path class="cls-16" d="M154.62,135.58c4-4.44-.15-5.3-3-6.76.46-1.94,1.27-3.81,1-5.87a20.94,20.94,0,0,1,3-15.15h.21l3.75,0h.21c2.56,4.08,6.65,7.34,6.77,12.72-1.07,17-2.13,34.05-3.22,51.51-6-3.86-10.4-9.24-15.82-13.41a1.81,1.81,0,0,1-.25-1.36c1.21-2.15,3.68-.15,5.11-1.56,1.77-1.11.17-2.39.19-3.59Z"/><path class="cls-17" d="M155.66,107.8q-1.51,7.58-3,15.15c-2.35-.7-4.71-1.35-7-2.12-10.67-3.53-10.49-3.49-7.28-14.46.82-2.8,2-2.92,4.13-2.34C146.87,105.25,151.26,106.54,155.66,107.8Z"/><path class="cls-4" d="M211.24,95.93,183.71,191c-5.36-4.86-10.08-9.19-14.86-13.46-1.78-1.59-1.4-3.62-1.31-5.56q1.13-24.07,2.33-48.14c4.78-1.14,9.54-2.38,14.35-3.37,2.74-.55,4.76-1.64,6.06-4.3,1.44-2.94,3.71-5.52,4.91-8.54C198.13,100.25,203.72,96.85,211.24,95.93Z"/><path class="cls-18" d="M166.6,120.54c-1.66-4.56-6.13-7.62-6.77-12.72,4-2.13,8.2-4,12-6.48,2.8-1.78,4.65-1.43,6.75,1,1.84,2.08,4,3.84,6.12,5.76L169,123Z"/><path class="cls-2" d="M152.42,155.72c-1.12,2.12-4.4-.64-5.17,2.28-3.44,1.8-7.15,1-10.74,1-2.79,0-4.51.61-4.41,3.78.09,2.51-1,5.57,3.31,5.69,1.53,0,3.49,0,3.72,2.37-1.09,2.51-3.44,2.34-5.5,2.37-13.84.15-27.68.12-41.52,0-1.82,0-3.66-.12-5-1.58-5.08-7.21-4.72-14.17,1-20.87,13.24,1.26,26.46,2.67,39.7,3.74C136,155.17,144.16,156.25,152.42,155.72Z"/><path class="cls-14" d="M87.07,171.63c15.72,0,31.45.05,47.18,0,1.63,0,3.84.92,4.48-1.78,1.94-1.87,4.59-1.9,6.94-2.69,1.7,6.13.12,9.5-7,8.4-.38-.06-.92.79-1.38,1.21-1.58,1-3.14,1.37-4.57-.26-1.06-1.1-2.44-.84-3.74-.84-11.56,0-23.13.11-34.69-.07-3.46-.06-4.57,1-4.55,4.5,0,4,1,8.15-.72,12.07C88.41,185.32,89.91,178.27,87.07,171.63Z"/><path class="cls-4" d="M131.46,190.75c4.06,4.36,8.09,8.75,12.19,13.08,1.29,1.36,2.49,2.63,2,4.74-3,13-5.91,26.08-9.84,39.25q-9.43-28-18.88-56.06C121.78,191.36,126.56,190.28,131.46,190.75Z"/><path class="cls-19" d="M132.75,176.51l4.57.26q-1.63,5.86-3.28,11.73l-1.27,1.32a17.91,17.91,0,0,0-4.27-1.06c-3.81,0-4.51-1.75-4.94-5.41C122.57,175,129,177.83,132.75,176.51Z"/><path class="cls-4" d="M203.11,141.46c5.74,27.13,11.49,54.27,17.37,82-5.07-3-8.36-7-12.18-10.39-6.34-5.58-12.58-11.29-18.84-17-1.32-1.19-2.71-2.2-2-4.56,5-16.74,9.79-33.51,14.65-50.27Z"/><path class="cls-20" d="M145.67,167.16c-1.17,3.83-4.53,2-6.94,2.69l-.49-.08c-2.63-.26-6.88.83-7.53-.85-1.08-2.76.07-6.39.32-9.65.14-1.78,1.19-1.89,2.78-1.78,4.47.32,9,.36,13.44.51a4.73,4.73,0,0,0,.31.64c-1,1.38-.84,3-.82,4.54Z"/></g></g></svg>