<svg xmlns="http://www.w3.org/2000/svg" viewBox="0 0 348.77 348.71"><defs><style>.cls-1{fill:#375ea9;}.cls-2{fill:#ffd009;}.cls-3{fill:#050405;}.cls-4{fill:#3f4999;}.cls-5{fill:#050404;}.cls-6{fill:#e9521f;}.cls-7{fill:#fff;}.cls-8{fill:#e9511f;}.cls-9{fill:#ebc67c;}</style></defs><g id="Camada_2" data-name="Camada 2"><g id="Camada_1-2" data-name="Camada 1"><path class="cls-1" d="M5.71,34.12c10.91-21,28.16-32.33,51.88-32.55Q173.23.53,288.86,0C321.74-.19,347,24.8,347.25,57.7q.84,115.41,1.52,230.81c.2,33.2-24.69,58.43-57.91,58.68q-115.38.85-230.77,1.52c-32.92.19-58.2-24.77-58.46-57.63-.31-38.21-.44-76.42-.65-114.64,2-.75,3.53.48,5.07,1.35,6.66,3.74,13.22,7.65,20,11.15,3.14,1.61,4.44,3.74,3.56,7.22-.45,1.76-.26,3.7-.9,5.39-2.71,7.14-.33,12.15,5.66,16.57a311.27,311.27,0,0,1,24.36,20.49c4.62,4.21,8.64,6.39,14.2,2.41,3.43.43,6-1.37,8.56-3.26,7.34-5.4,14.86-10.55,22.34-15.77a19.14,19.14,0,0,1,4.76-2.65c1.85-.7,3.81-1,5.68-1.67,7.9-2.11,15.69-4.67,23.76-6.1,2.79.74,5-.57,7.23-2,7.25-2.33,14.64-4.18,21.92-6.42,3.24-1,5.1-2.76,5.81-6,.89-4,2.35-7.94,3.46-11.92.51-1.81.67-4.1,3.36-4.29,1.67.69,1.85,2.26,2.08,3.71,3.16,19.37,7.89,38.39,12.6,57.41a7.9,7.9,0,0,1,.22,3.45c-1.68,3.46-4,1.26-5.83.41-6.61-3.08-12.67-7.23-19.65-10.54a20.39,20.39,0,0,0,2.19,5q11.85,23.31,23.68,46.65c2.85,5.65,2,7.07-4.3,7.19-10.63.19-21.19-1-32.34-1.81,7.07,3.17,13.7,6.11,20.28,9.14a32,32,0,0,1,3.63,1.64c1.13.7,2.43,1.41,2.2,3-.19,1.32-1.46,1.69-2.55,2.09a14.21,14.21,0,0,1-2.4.66c-13.39,2.45-26.66,5.53-40.52,7.91,31.07,3.31,61.74,6.47,92.42,9.52,9.08.9,18.13,2,27.22,2.82a20.49,20.49,0,0,0,8.78-1.2c20.88-7.17,41.8-14.25,63-21.48-7.2-.89-14.11-1.45-21-2.08-2.12-.19-4.69.21-5.61-2.26-.82-2.23,1.26-3.6,2.58-5,9-9.52,17.51-19.53,28.13-29.29-10.44,3-19.55,6.08-28.74,8.88-4.13,1.25-8.27,2.49-12.39,3.76-5.76,1.79-7.54.1-5.9-5.83,3.44-12.48,7.14-24.9,10.62-37.37,1.5-5.38,3.44-10.64,4.54-16-10.16,13.83-20.63,27.55-31.1,41.27a5.92,5.92,0,0,1-2.72,2.11c-2.4,0-2.87-2-3.51-3.62-9.74-24.36-19.08-48.84-26-74.18-1.43-5.22-1.35-9.8,2.06-14.06,2.72-3.39,2-5.83-1.54-8.14-2-1.33-4.18-2.75-5.51-5a11.85,11.85,0,0,1-.84-3.31c-3.45-18-6.11-36-9.25-54-3.45-19.8-8.09-39.39-10.7-59.35-.48-3.64-2.44-4.89-6-5.06q-20.65-.94-41.33-.71c-29.56.35-59.12-.35-88.68-.7-21.42-.26-42.84.07-64.25-.3C10.67,36.26,7.56,37.23,5.71,34.12Z"/><path class="cls-2" d="M5.71,34.12c2.47,1.76,5.12.34,7.68.36q98.81,1,197.62,1.89c1.68,0,3.41-.63,3.74,2.41,2.62,23.89,8.61,47.22,12.32,70.93,2.45,15.71,5.1,31.38,7.66,47.07-8.17,5.32-15.51,11.74-23.3,17.56-4.38,3.27-4.31,4.75.59,6.63,6.39,2.46,12.5,5.76,19.37,7-1.41-2.78-4.26-3.23-6.64-4.29-3.17-1.41-6.41-2.68-9.57-4.13-2.14-1-2.74-2.77-.81-4.24,6.92-5.27,12.95-11.79,21.09-15.41a7.67,7.67,0,0,1,.83.51c3,2.34,7.37,4.15,8.58,7.2,1.27,3.22-2.88,6.44-4.58,9.7a6.06,6.06,0,0,0-.73,4.71,572,572,0,0,0,29.09,82.6c5.94,10,10.13,20.78,13.79,31.78.08.26-.17.61-.34.9a1.67,1.67,0,0,1-1.49.16c-4.31-3.67-6.05-9-8.94-13.64-1.49-2.38-2.74-4.93-4.28-7.29a5,5,0,0,0-4.51-2.65c-6.49.25-12.92-.54-19.37-1-3.7-.25-4.66,1.23-3.71,4.78,2.71,10.1,5.19,20.26,8,30.33.61,2.16,1.76,4.4.38,6.73-4.06,1.77-8.46,1.15-12.68,1.75-2.46.35-3.77-1.78-4.69-3.81-7.65-16.93-16.41-33.39-23-50.76-6.14-16.29-9.54-33.47-13.52-50.43a351.2,351.2,0,0,1-8-46.54,14.13,14.13,0,0,1,.16-4.94c2.79-8.8,3-18,3.87-27.05a650.5,650.5,0,0,1,12.43-79.62,35.16,35.16,0,0,0,.89-5.4c.12-1.82-.32-3.64-2.42-3.65-7.23-.06-14.43-1.46-22.87-.85,2.33,2.05,4.11,1.69,5.73,1.73,3.81.09,7.65-.3,11.44.17,5.1.64,6.34,2.32,5.34,7.32-1.33,6.68-2.47,13.39-3.92,20-5.92,27.16-7.51,54.88-11,82.36a23.85,23.85,0,0,0,.14,4.47c-1.39,7.22-2.4,14.58-6.64,20.91q-2.94,9.66-5.89,19.32c-.43,1.38-.49,3-2.3,3.47-8.87,2.27-17.47,5.57-26.52,7.17-3.33-.9-1.79-3.46-1.55-5.26,1.66-12.51,3.75-25,5.4-37.47,3.33-25.38,8-50.52,13-75.6.3-1.47.46-3,.8-4.41.93-4-.67-6-4.65-6.38-3.5-.33-6.92-1.54-10.52-1,2.31,2,5.16,2,7.82,2.56,4.11.83,5.53,3.22,4.85,7.18-.55,3.28-1.07,6.56-1.73,9.81-7.15,35-11.83,70.41-17.08,105.73-.35,2.41-.31,5-2.66,6.71l-24.71,6.52c-3.83.37-2.29-2.64-2.19-4.05.57-7.78,2-15.46,2.94-23.21,2.23-18.64,5.19-37.13,10.2-55.27,2.29-8.29-1-11.34-10.14-9.88a2.14,2.14,0,0,0,1.51,1.17c7.93,2.92,8.2,3,6,11-6.88,24.58-8.72,50-12.59,75.07-.34,2.24,1,4.64-.71,6.72-10,6.89-20,13.7-29.89,20.73-2,1.41-3.55,2.12-5.57.47C67.11,239.1,63,233.86,58,229.88c-6.73-5.36-13.06-11.22-19.81-16.58-3.34-2.65-4.9-5.67-3.56-9.94,1.22-3.93.64-8.3,2.89-12,2.27-1.22,3.75.64,5.35,1.54,6.93,3.88,13.65,8.13,20.46,12.22,1.63,1,3.18,2.35,5.48,1.87-4.19-6-4.14-6,.77-12.32,1.93-2.5,4.16-4.71,6.32-7,1.06-1.12,2.54-2.06,2.38-4-2.49-.41-3.36,1.5-4.57,2.68q-5.35,5.17-10.48,10.59c-2.31,2.45-4.48,2.84-7.38.9-4.39-3-9.11-5.39-13.61-8.2a9.56,9.56,0,0,0-6.57-1.68c-8.64-3.06-16-8.48-24.09-12.7-3.74-2-8-3.34-10.62-7.07Q.63,135.31.32,102.44C.19,87,.15,71.55,0,56.11a52,52,0,0,1,3.08-18C3.61,36.57,3.78,34.72,5.71,34.12Z"/><path class="cls-3" d="M38,191.42c-.85,4.87-1.51,9.79-2.63,14.59-.71,3,1.31,4.16,3,5.6q17.42,15,34.9,29.92c-.14.08-.3.15-.43.24-7.06,4.79-6.93,4.64-13.38-1-10.11-8.83-20.29-17.58-30.7-26a6.39,6.39,0,0,1-2.54-6.82c.59-3.57.68-7.33,1.92-10.66,1.62-4.4-.38-6.15-3.81-7.95C16.5,185.16,8.76,180.75,1,176.44q0-4.12,0-8.27L36,187.43A6.45,6.45,0,0,1,38,191.42Z"/><path class="cls-4" d="M282.08,297.1c-4.16-11-9.76-21.3-13.43-32.45l35.39-47,1,.57q-3.94,13.9-7.9,27.81c-2.78,9.7-5.67,19.36-8.3,29.1-.39,1.42-1.95,3.19-.35,4.62s3.15,0,4.67-.47q20.13-6.3,40.24-12.68c1.12-.36,2.17-.83,4.93.62-2.58,2.05-5,3.56-6.89,5.54-8.42,8.7-16.72,17.52-25,26.32-.77.81-2.2,1.52-1.83,2.75.47,1.57,2.13,1.18,3.42,1.28l26.24,2.13c-.17,2.33-2.18,2.08-3.29,2.47-21.76,7.52-43.58,14.88-65.35,22.39-4,1.37-7.93.52-11.73.09q-31.44-3.54-63-6.43c-18.38-1.7-36.73-3.79-55.09-5.73-.24,0-.45-.4-1.5-1.38l49.42-10,.3-1.22L155,292.15l.22-1c7.81.39,15.68.37,23.42,1.32,5,.61,9.93.38,14.88.38,4.25,0,1.75-2.6,1-4-8.5-16.92-17.12-33.77-25.65-50.68-.78-1.55-2.2-2.95-1.67-5.5,7.51,4.13,14.8,8.22,22.18,12.11,1.31.69,2.56,2.29,4.44,1.3,2.18-.17,2.3,1.71,2.59,3,4.73,20.61,15.59,38.68,23.91,57.8,4.59,10.53,5.61,11,17.25,9.55,5.27-.66,10.61-.59,15.8-1.44,7.06-1.16,14.25-.31,21.25-1.89a7.32,7.32,0,0,0,3.21-1.16c2.86-1.22,5.95-1.32,9-1.82-.39-2-2.12-3.43-2.75-5.42C283.77,302.06,281.77,299.89,282.08,297.1Z"/><path class="cls-5" d="M278.09,312.34c1.44,2.26-.4,1.76-1.6,2-7.33,1.51-14.82.89-22.21,1.87-9.33,1.22-18.81,1.24-28.2,2.08-2.86.25-2.9-1.85-3.51-3.27-9.74-22.76-22.63-44.21-28.37-68.63,0-.13-.24-.22-.36-.33-2.43-10.5-4.79-21-7.31-31.49a305.94,305.94,0,0,1-6.24-32.31,6.86,6.86,0,0,0-.78-1.79l5.85-20.43a1.82,1.82,0,0,1,2.12.13c2.09,29.11,9.67,57.14,16.77,85.28,6.07,24,18.91,45.16,28.31,67.75.95,2.26,2.61,2.17,4.47,2l10.9-1c4.3-2.23,9.12-1.28,13.66-2.12,3.88-.71,7.94-.35,11.89-1C275.12,310.85,276.82,310.93,278.09,312.34Z"/><path class="cls-6" d="M138.49,212.26c3.58-23.57,7-47.17,10.81-70.7,2.76-17,5.92-33.91,9.28-50.79.89-4.49-.06-6.48-4.61-6.84a73.5,73.5,0,0,1-7.35-1.19c-1.43-.26-2.59-1-2.41-2.62A2.3,2.3,0,0,1,147.06,78c5.23.86,10.45,1.75,15.62,2.9,2.39.53,2,2.47,1.61,4.43-3.13,16.43-6.48,32.82-9.15,49.32-4,24.51-7.44,49.1-11.12,73.65a1.81,1.81,0,0,0,.78,2.14C143.21,212.82,141.52,214.86,138.49,212.26Z"/><path class="cls-6" d="M108.76,220.33c-2.22-7.7.76-15.08,1.61-22.54,2.46-21.57,5.48-43.08,11.54-64,.77-2.65-.25-3.64-2.74-4a41.78,41.78,0,0,1-5.8-1.38c-1.14-.34-2.18-1-2-2.47a2.22,2.22,0,0,1,2.89-2c3.9.78,7.78,1.64,11.61,2.68,2.43.66,2,2.53,1.54,4.46-2,8-4.07,16.07-5.86,24.16-3.75,17-5,34.41-7.7,51.59-.52,3.27-.76,6.59-1.27,9.86-.18,1.16-.21,2,1.18,2.1Z"/><path class="cls-6" d="M235.46,159.93l-22.11,17.63c6.13,2.59,11.72,5,17.32,7.3,1.69.7,4,1.33,3.29,3.55-.88,2.59-3.18,1.59-5.07.81l-19.74-8.16c-3.35-1.39-4.14-3.31-1-5.76,7.32-5.7,14.71-11.31,22-17a6.13,6.13,0,0,1,4.57-1.48C235,157.83,235.21,158.88,235.46,159.93Z"/><path class="cls-7" d="M278.09,312.34c-10.07.35-20,2.36-30.16,1.88-3.35-13-6.63-25.93-10.09-38.85-.74-2.74-.56-3.82,2.68-3.65,7.92.43,15.87.65,23.8.74,2.33,0,3.1,1.4,4,3q6.3,10.95,12.67,21.89c2.32,1.69,2.47,4.7,4.15,6.78,1.17,2.12,2.34,4.23,3.69,6.69C285.1,312.11,281.53,311.86,278.09,312.34Z"/><path class="cls-8" d="M187.48,160.18l-2.12-.13a6.37,6.37,0,0,1-1-4.75c4-34.55,7.21-69.23,15.31-103.16,1.06-4.46-.57-5.27-4.13-5.32q-7.72-.09-15.45-.12c-1.76,0-3.73-.24-3.85-2.26-.14-2.46,2-2.68,3.92-2.63,7.3.2,14.59.46,21.89.7,4.72.15,3.61,3.48,3.11,6.13-2.11,11.23-4.2,22.47-6.62,33.63-3.52,16.25-4.4,32.82-6.48,49.24-1.07,8.38-1.94,16.79-2.88,25.18A5.75,5.75,0,0,1,187.48,160.18Z"/><path class="cls-6" d="M38,191.42a3.5,3.5,0,0,1-2-4c1.91-1.58,3.55-.81,5.39.33C46.63,191,52,194,57.15,197.27c1.93,1.24,3.06,1.11,4.59-.53q5.92-6.37,12.17-12.44c1.46-1.41,2.76-4.67,5.52-2.18s-.3,4-1.69,5.58c-3.43,3.81-6.91,7.6-10.56,11.2-2,2-2.53,3.33.47,4.6a15.71,15.71,0,0,1,1.67,1.07c1.44.88,2.34,2.13,1.34,3.69-.86,1.36-2.38,1-3.58.37-3-1.66-6.07-3.4-9-5.18C51.35,199.47,44.7,195.44,38,191.42Z"/><path class="cls-9" d="M285.17,304.13c-2.12-1.81-3-4.36-4.15-6.79l1.06-.23A15,15,0,0,1,285.17,304.13Z"/></g></g></svg>