<svg xmlns="http://www.w3.org/2000/svg" viewBox="0 0 347.85 347.28"><defs><style>.cls-1{fill:#703c8f;}.cls-2{fill:#e9531f;}.cls-3{fill:#e95320;}.cls-4{fill:#e84a38;}.cls-5{fill:#e84b2c;}.cls-6{fill:#e94e2c;}.cls-7{fill:#e94f29;}.cls-8{fill:#ea569a;}.cls-9{fill:#ffd009;}.cls-10{fill:#eb569a;}.cls-11{fill:#ea5699;}.cls-12{fill:#070104;}.cls-13{fill:#090507;}.cls-14{fill:#ffd00c;}.cls-15{fill:#120b0a;}.cls-16{fill:#0a0707;}.cls-17{fill:#e85598;}.cls-18{fill:#fdcd19;}.cls-19{fill:#e75598;}.cls-20{fill:#e85033;}.cls-21{fill:#e9502e;}.cls-22{fill:#e75035;}.cls-23{fill:#e9502f;}.cls-24{fill:#e9512c;}.cls-25{fill:#e95030;}.cls-26{fill:#e9502d;}.cls-27{fill:#e95031;}.cls-28{fill:#e9512b;}.cls-29{fill:#e85030;}.cls-30{fill:#e9512e;}.cls-31{fill:#e9512a;}.cls-32{fill:#e95127;}.cls-33{fill:#e95129;}.cls-34{fill:#13040a;}.cls-35{fill:#703d90;}.cls-36{fill:#fff;}.cls-37{fill:#040304;}.cls-38{fill:#e95598;}.cls-39{fill:#fffeff;}.cls-40{fill:#030203;}</style></defs><g id="Camada_2" data-name="Camada 2"><g id="Camada_1-2" data-name="Camada 1"><path class="cls-1" d="M347.45,143.8c.08,9.29.21,18.58.21,27.87,0,34.53.15,69.06-.13,103.59,0,5.3.7,10.64-.1,15.94-3,.46-4.94-1.61-7.14-2.93-25.9-15.58-51.66-31.39-78.25-47.54.65,2.12,1.2,3.57,1.68,5,10.3,31.41,21.12,62.64,31.62,94,.77,2.29,2.24,4.55,1.15,7.17l-5.65.17a6.94,6.94,0,0,1-.72-.6,7.26,7.26,0,0,1-1.4-2.11c0,.9.58,1.84-.18,2.68L232,347.1a4.63,4.63,0,0,1-1.2-.79c-1.64-2-1.69-.46-1.88.82l-6.78-.09c-2.13-1.2-3.24-3.28-4.54-5.2-13.16-19.53-25.74-39.46-39-58.95-1-1.49-1.77-3.19-3.51-4.48-1.72.89-2.09,2.79-2.84,4.31-9.61,19.49-19.84,38.67-28.82,58.47-1,2.23-1.84,4.69-4.29,5.91l-5.87,0c-.82-3.57-1.68.63-2.51,0l-71.56,0c-1-3.93-1.91-.24-2.87,0L50.46,347c-1.51-2.23,0-4.15.75-6.06,12-31.28,23.54-62.71,35.39-94a3.16,3.16,0,0,0,.24-2.7c-4.43,1.78-8.15,4.78-12.09,7.29C52.12,265.91,29.47,280.35,7,295.09c-1.84,1.21-3.46,3.29-6.17,2.43-.14-2-.39-3.95-.39-5.93q0-71.91,0-143.82c0-1.33.14-2.65.21-4,2.08-2,4.69-1.23,7.11-1.32,4.75-.18,9.53.22,14.12-.23a1.83,1.83,0,0,0,.05-1.75C15.17,127.4,9,114,2.48,100.8A9.22,9.22,0,0,0,.6,97.9c.14-17.21-2-34.58,1.07-51.58C5.24,26.61,17,12.64,35.56,4.64c1.59,2.9-.77,4.69-2,6.62-8.55,13-15.26,26.8-18,42.23-1.25,7-2.38,14.05-1.44,20.35,1.56-6.63,4.65-13.66,8-20.53,10-20.66,25.31-36.67,44.52-49.06A32.18,32.18,0,0,1,75,.26L161.11.2a8.83,8.83,0,0,1,2.22,4.91c2.53,12.18,5.16,24.35,8.08,37.34,4-12.35,7.63-24,11.32-35.7.75-2.36,1.17-4.87,3.32-6.52l100.5,0c4.08,1.27,7.27,4,10.45,6.61C316.48,23,329.79,43.17,336.47,66.42c-.43-2.6-.2-6.38-.16-10.15a55.26,55.26,0,0,0-1.43-11.34c-2-10.36-6.22-19.93-10.95-29.3-.82-1.64-2.77-3.14-1.26-5.38,15,10.05,23.44,24.33,24.66,42,1.06,15.14.19,30.41.17,45.62-5.6,9.77-9.83,20.23-15.1,30.17-2.38,4.49-4.62,9.05-7,14.06,5.75.62,10.87.17,16,.34C343.44,142.55,345.7,142.05,347.45,143.8Z"/><path class="cls-2" d="M296.49,346.91l-36.92-109.1,87.86,53.39C349.16,319.78,324.69,346.53,296.49,346.91Z"/><path class="cls-2" d="M.84,297.52q41.76-26.88,83.55-53.73c1.45-.93,2.73-2.39,5.46-2.26C76.65,276.86,63.55,311.9,50.46,347,23.38,344.32,3.05,324.07.84,297.52Z"/><path class="cls-2" d="M139.15,347.1c.67-1.5,1.28-3,2-4.5,11.11-22.32,22.23-44.64,33.65-67.54,2.45,3.65,4.64,6.9,6.8,10.17q19.44,29.38,38.84,58.79c.63,1,1.11,2,1.66,3q-30.31.12-60.62.24C154.05,347.3,146.6,347.17,139.15,347.1Z"/><path class="cls-2" d="M75,.26C65.37,6.58,55.67,12.87,47.27,20.92,31,36.54,20.57,55.61,14.21,77.19c-2.5-7.54-1.81-19,1.81-31.76S25.51,21.18,32.7,10.2c1.13-1.72,3.12-3.09,2.86-5.56C39.92,1.18,45.26.55,50.42.29,58.61-.14,66.83.23,75,.26Z"/><path class="cls-3" d="M322.67,10.25c5.47,10.91,10.84,21.83,13.44,33.91,1.86,8.64,1.7,17.27.56,26.18-1.15-3.33-2.24-6.67-3.45-10-8.89-24.14-23.7-43.75-44.88-58.48A17.11,17.11,0,0,1,286.55.25,58.15,58.15,0,0,1,315.82,5C318.56,6.21,321,7.67,322.67,10.25Z"/><path class="cls-3" d="M186.05.23,171.77,46l-1.07.1Q165.9,23.15,161.11.2Z"/><path class="cls-3" d="M.6,97.9c1.44-.24,2.12.7,2.65,1.77,7.22,14.45,14.42,28.91,22,44.13H.65Q.62,120.85.6,97.9Z"/><path class="cls-3" d="M347.45,143.8H322.89c1.66-3.34,3.07-6.23,4.51-9.11,5.44-10.94,10.84-21.9,16.38-32.79.81-1.59.94-4.12,3.72-4Q347.47,120.85,347.45,143.8Z"/><path class="cls-4" d="M56.34,347.11a3,3,0,0,1,.23-.93c1-1.51,1.06-5.06,2.77-4.45,2.87,1-.64,3.47-.13,5.37Z"/><path class="cls-5" d="M228.9,347.13c-.09-1.69-3.06-3.43-1.37-4.46,2.16-1.31,2.57,1.95,3.76,3.2a5.66,5.66,0,0,1,.69,1.23Z"/><path class="cls-6" d="M288.54,347.05c-.24-1.86-2.83-4.65-.44-5.26,2.09-.53,2,3.33,2.74,5.29Z"/><path class="cls-7" d="M130.77,347.07a2.68,2.68,0,0,1,.32-.94c1.16-1.33,1-4.81,3.43-3.68,1.64.78-.93,3-1.24,4.63Z"/><path class="cls-8" d="M177,218.47c-46.15-.89-91.27-12.6-131.95-39.44C43,177.66,41,176.23,39,174.68c-5.94-4.73-7.12-12.35-2.9-18.17,4.5-6.19,12.14-7.68,18.46-3.14,24.67,17.77,52.2,28.64,81.91,34.37,39.07,7.53,77.53,4.61,115.51-6.67a336,336,0,0,0,39.13-14.57c8.23-3.61,15.7-1.21,18.94,6s.2,14.38-8.11,18.09c-30.32,13.52-61.77,23-95,26.18C197.76,217.64,188.51,218.35,177,218.47Z"/><path class="cls-9" d="M239.55,143.08c.54,3.52.71,7.15,1.71,10.54s.23,5.17-3.44,5.3c-2.09,2-4.79,2.07-7.41,2.45-5.08.73-10.17,1.44-15.29,1.88-5.47.47-6.71-.5-7.39-6-.6-4.93-.72-9.91-1-14.86-1.27-20.31-3.13-40.58-4.4-60.9C201.61,70.23,201,59,199.74,47.8c-.35-3.14-.65-6.29.92-9.25.29-1.26.29-2.55,1.54-3.5,5.39-4.08,10.69-8.27,16.46-12.75,2.19,13,4.28,25.28,6.51,38.4L282.2,10c2.84,8.42,5.48,16.35,8.23,24.24.64,1.86-.13,3.17-1,4.6-5.31,8.41-10.7,16.77-15.83,25.28-1.66,2.75-2.91,2.84-5.75,1.4-14.31-7.25-28.42-6.41-41.13,3.41s-17.49,23.21-13.75,38.9,14.11,25.57,29.79,28.54c15.43,2.93,28.55-2.19,38-15.09,1.93-2.63,3.36-3.12,6.35-1.84,5.62,2.4,11.46,4.3,17.25,6.3,1.62.56,2.73,1,2,3.1Q301.08,143,296,157.3a2,2,0,0,1-2.25,1.45c-1.55.64-2.94-.06-4.31-.61L238.94,138C240.47,139.29,240.28,141.14,239.55,143.08Z"/><path class="cls-9" d="M46.35,83.62C55.79,61.71,71.25,47.15,96,46.37c22.4-.7,39.52,9.58,49.23,29.91,10,20.88,6.25,40.55-8.19,58.38C129.21,146,117.69,151,104.68,152.78c-27.6,3.73-53.62-14.67-59.85-41.81A48.54,48.54,0,0,1,46.35,83.62Z"/><path class="cls-10" d="M250.26,132.84a33.78,33.78,0,0,1-34.32-33.41c-.13-18.68,15-34.2,33.51-34.34,18.67-.14,34.19,15,34.29,33.55A33.71,33.71,0,0,1,250.26,132.84Z"/><path class="cls-11" d="M165.2,89.74c8.72.15,17.45.22,26,2.16,2.06,3.09.11,6.21-.36,9.11-1.59,9.77-3.41,19.53-5.74,29.16-1.28,5.27-2.76,6.25-8,6-4.52-.21-6.54-1.85-7.21-6.6-1.66-11.78-3.88-23.46-5.65-35.22C164.06,92.68,163.79,91.06,165.2,89.74Z"/><path class="cls-12" d="M165.2,89.74c2.21,13.91,4.45,27.83,6.63,41.75.81,5.15,4.95,2.37,7.54,3.19s3.62-.72,4.1-3.24c2.5-13.2,5.16-26.36,7.76-39.54,1.14-.31.19-2.76,2-2.16,1.22.4.65,1.66.48,2.58-.43,2.41-.91,4.81-1.37,7.21,1.4,5.79-1.15,11.11-2,16.62-.47,3-.71,4.88,3.38,4.08,2.24-.43,4.13.94,5.32,3,.76,1.27,1.62,2.49,2.25,3.83,2.81,6,1.26,8.35-2.57,13.43-6.59,8.73-15.12,6.83-23.6,6.11-3.78-.32-7.54-1-11.35-.85a4,4,0,0,1-4-2.3A22.23,22.23,0,0,0,156.6,139c-4.71-4.77-6-10-2.34-15.92,1.38-3.38,3.81-5.5,7.54-5.4,3.55.1,3.66-1.71,3.15-4.42-.92-4.88-1.49-9.82-2.27-14.72a16,16,0,0,1,.14-6.88c.58-1.11-1-2.71.73-3.43C163.83,88.13,164.63,89.21,165.2,89.74Z"/><path class="cls-13" d="M46.35,83.62c-.19,6.92-2.15,13.69-1.19,20.74,2.9,21.29,14.11,36.5,34.07,44s38.48,3.57,54.58-10.68c1.11-1,2.17-2,3.25-3.05-4.67,9.34-12.7,15-21.87,19-32.57,14-68.38-6-73.47-41.22C40.3,102.58,41.22,92.64,46.35,83.62Z"/><path class="cls-14" d="M306.1,93c-6-4.56-9.09-9.63-8.5-17.36.71-9.44-1.82-18.37-9.54-25.81,7.3-1.76,14.15-3.29,20.94-5.09,2.91-.78,2.39,1.25,2.73,2.72A67,67,0,0,1,306.1,93Z"/><path class="cls-15" d="M200.66,38.55q2.21,29.79,4.4,59.57c1.44,19.86,2.93,39.73,4.17,59.61.25,4.05,1.47,4.82,5.4,4.13,7.67-1.35,15.45-2,23.19-2.94.93,3.14-.56,4.35-3.51,4.71-7.87.94-15.74,1.91-23.59,3-3.59.51-4.68-.51-4.9-4.36-1-17.18-2.49-34.33-3.7-51.5C201,94.94,200,79.07,199,63.2c-.41-6.11-.71-12.24-1.48-18.31C197.08,41.78,197.8,39.77,200.66,38.55Z"/><path class="cls-16" d="M239.55,143.08c-.48-2-1-4-1.66-7l55.89,22.66c-.79,4.66-3.06,4.71-7.06,3.05C271.08,155.35,255.29,149.29,239.55,143.08Z"/><path class="cls-17" d="M162.82,91.68c1.5,9.24,3,18.49,4.59,28.38-5.78-2.84-9.74-.84-13.15,3C156.8,112.54,158.78,101.83,162.82,91.68Z"/><path class="cls-18" d="M296.57,89.84c1.55,1.8,2.41,3.32,3.7,4.22,5.18,3.6,2.12,7.84,1.12,11.9-.27,1.09-1,1.48-2.25,1-2.73-1.14-5.52-2.14-8.27-3.21-2-.77-1.18-1.86-.45-3.09C292.41,97.24,294.31,93.81,296.57,89.84Z"/><path class="cls-19" d="M199,123.22c-3.45-2.51-7-2.44-11.33.18l4.64-23.87C196.13,107,197.3,115.18,199,123.22Z"/><path class="cls-20" d="M276.48,303.91a1.17,1.17,0,0,1-.76,1.56c-.87.39-1.33-.36-1.5-.84-1.45-4-2.8-8-4.16-12.05a1.18,1.18,0,0,1,.79-1.54c.88-.41,1.33.38,1.5.84C273.79,295.87,275.12,299.9,276.48,303.91Z"/><path class="cls-21" d="M42.26,263c-3,4.18-7.6,6.31-11.81,8.93-.21.13-.95-.19-1.17-.5-.66-1,.11-1.55.79-1.94C34,267.24,37.49,264.14,42.26,263Z"/><path class="cls-22" d="M262.32,265.76c3.15,3.78,4.05,8.42,5.47,12.84a1.79,1.79,0,0,1-.66,1.59c-.58.33-1.2-.05-1.45-.83C264.27,274.91,262.1,270.67,262.32,265.76Z"/><path class="cls-23" d="M88.05,266.67c-.11,5.27-2.91,9.67-4.51,15.27C81.84,278.32,84.12,270.93,88.05,266.67Z"/><path class="cls-24" d="M74.78,242.13c3.8-3.84,8.07-6.91,13.44-8.15C84.33,237.67,80.23,241,74.78,242.13Z"/><path class="cls-21" d="M65.3,249.43A19.09,19.09,0,0,1,63.51,251q-4.34,2.84-8.73,5.59c-.79.49-1.68,1.4-2.57.33-1-1.24.3-1.76,1-2.23,3.14-2.1,6.33-4.13,9.53-6.14.68-.43,1.48-.87,2.22-.09C65.16,248.62,65.17,249,65.3,249.43Z"/><path class="cls-23" d="M73.81,306c-1.12-.05-1.67-.78-1.36-1.62,1.51-4.15,3.13-8.27,4.78-12.37a1.37,1.37,0,0,1,1.18-.54,1,1,0,0,1,.83,1.48c-1.56,4.14-3.19,8.25-4.82,12.37C74.31,305.64,74,305.84,73.81,306Z"/><path class="cls-25" d="M207.83,310.11a4.34,4.34,0,0,1-.69,1.25,1.08,1.08,0,0,1-1.69-.31c-2.3-3.44-4.53-6.92-6.79-10.38-.41-.64-.45-1.29.24-1.68.32-.18,1.07-.17,1.22.05C202.71,302.68,205.24,306.36,207.83,310.11Z"/><path class="cls-25" d="M91.92,255.63c.09-4.84,2.29-9,3.94-13.31a1.16,1.16,0,0,1,1.59-.74c.33.16.74.87.63,1.13C96.27,247.11,95.42,252,91.92,255.63Z"/><path class="cls-26" d="M19.87,278.42C16.51,282,12.05,284.07,8,286.64c-.35.22-.94.46-1.25-.21A1.3,1.3,0,0,1,7,284.65c3.91-2.59,7.85-5.15,11.78-7.72Z"/><path class="cls-20" d="M160.34,290c.11-4.49,2.76-7.89,4.48-11.65.28-.62.78-1.14,1.52-.89,1.08.35.95,1.35.59,2C164.92,283,163.83,287.2,160.34,290Z"/><path class="cls-27" d="M247.08,221.76c2.07-.09,3.32,1.15,4.66,2,1,.66,2.92.88,2.61,2.49-.36,1.84-1.81.37-2.76.49-1.73.24.23,2.55-1.81,3.14A9.93,9.93,0,0,1,247.08,221.76Z"/><path class="cls-28" d="M193.05,291.23c-4.31-4.72-6.74-9-9.68-13.8C187.47,278.61,192.08,285.06,193.05,291.23Z"/><path class="cls-29" d="M314.43,264.8c-3.37-2.08-6.73-4.14-10.07-6.24a1.08,1.08,0,0,1-.36-1.67,1.28,1.28,0,0,1,1.78-.22c3.25,1.94,6.48,3.91,9.68,5.94a1.08,1.08,0,0,1,.38,1.66C315.57,264.57,315,264.6,314.43,264.8Z"/><path class="cls-25" d="M174.71,265c-1.77.73-1.52,4.5-3.78,3.06-1.71-1.09.63-3.14,1.29-4.65.48-1.11,1.18-3.62,2.76-2.26,1.84,1.58,4,3.67,3.7,6.55-.09.91-1.32.6-1.93-.14S175.34,265.82,174.71,265Z"/><path class="cls-28" d="M68.84,316.47c.3,5.44-2.39,9.88-4.76,14.42C63.66,325.42,66.47,321,68.84,316.47Z"/><path class="cls-30" d="M254.11,240.58c.92.06,1.31.83,1.56,1.59,1.22,3.6,2.36,7.23,3.59,10.82.3.91.29,1.64-.58,2.09s-1.31-.4-1.49-.89Q255,248.13,253,242C252.84,241.38,253.19,240.7,254.11,240.58Z"/><path class="cls-26" d="M295.58,251.3c-.54,1.14-1.26,1.21-2.07.72-3.23-1.93-6.46-3.86-9.64-5.87-.45-.29-1.05-.91-.54-1.63a1.12,1.12,0,0,1,1.65-.41c3.34,2,6.71,4,10,6.13C295.33,250.44,295.43,251,295.58,251.3Z"/><path class="cls-31" d="M284.3,330.85c-3.18-4.33-4.37-9.33-5.09-14.5A26.31,26.31,0,0,1,284.3,330.85Z"/><path class="cls-29" d="M101.33,231c.15-3-1.92-3-3.75-3.6-.57-.19.25-1.21.75-1.48,2-1,3.53-2.95,6-3.18a.61.61,0,0,1,.41.24c1.23,1.38-.11,2.53-.52,3.61C103.62,228,103.64,229.92,101.33,231Z"/><path class="cls-28" d="M336.57,275.94c0,1.58-.93,1.68-1.95,1.08-3.09-1.81-6.13-3.72-9.2-5.58-.82-.49-1.19-1.15-.7-2s1.24-.39,1.72-.11c3.1,1.8,6.15,3.68,9.19,5.57A4.64,4.64,0,0,1,336.57,275.94Z"/><path class="cls-32" d="M214.12,319.85c2.54,3.87,5.09,7.73,7.6,11.62a1.06,1.06,0,0,1-.43,1.63,1.4,1.4,0,0,1-1.31-.32c-2.65-3.89-5.8-7.52-7.44-11.95Z"/><path class="cls-31" d="M274.75,238.3c-.05,1.59-1.21,1.5-2,1-3.12-1.79-6.17-3.7-9.19-5.66a1.84,1.84,0,0,1-.61-1.63,1.08,1.08,0,0,1,1.66-.37q4.85,2.9,9.65,5.84C274.46,237.65,274.57,238,274.75,238.3Z"/><path class="cls-24" d="M140.38,333.16c-1.94-.24-2.34-1-2.07-1.52,1.69-3.55,3.49-7.06,5.31-10.55a1.11,1.11,0,0,1,1.63-.55,1.19,1.19,0,0,1,.33,1.7q-2.45,4.85-4.79,9.72A5.4,5.4,0,0,0,140.38,333.16Z"/><path class="cls-33" d="M149.66,311.16a25.11,25.11,0,0,1,6.06-12.26A19.12,19.12,0,0,1,149.66,311.16Z"/><path class="cls-34" d="M176.71,207.53C133.79,206.82,91,195.9,52.31,170.8c-2.22-1.44-4.33-3.06-6.41-4.7-1.12-.88-1.76-2-.57-3.4s2.3-1,3.5-.13l.81.58c40.78,28.39,86.37,40.32,135.64,39.38,37.16-.71,72.45-9.72,106.43-24.4a10.72,10.72,0,0,1,1.83-.76c2.16-.52,4.9-3.79,6.38-.47,1.64,3.65-2.71,3.79-4.77,4.73a298.83,298.83,0,0,1-39.59,14.56A283.64,283.64,0,0,1,176.71,207.53Z"/><path class="cls-35" d="M97.88,137A38,38,0,1,1,136,98.7,38.08,38.08,0,0,1,97.88,137Z"/><path class="cls-36" d="M256.36,85.58c2.83-.87,5.64-1.85,8.5-2.59,7.13-1.87,7.19-1.79,9.21,5.21,4,13.78-4.94,28.37-19.18,31.37-13.59,2.86-27.67-6.73-29.86-20.39-.55-3.46-.9-6.9,4.36-6.58,1.12,1.72,1.1,3.79,1.65,5.69,2,6.79,9,11.29,15.7,9.94a13.7,13.7,0,0,0,11.07-14.89C257.62,90.68,256,88.32,256.36,85.58Z"/><path class="cls-37" d="M256.36,85.58A15.4,15.4,0,0,1,251.75,108,15.12,15.12,0,0,1,229.39,92.6Z"/><path class="cls-38" d="M164.3,133.73a44.52,44.52,0,0,1-5.05-.65c-1.74-.43-4.77.87-5-1.45-.39-3.72,1.65-7,4.61-9.36,2-1.6,4.25-1.91,6.36-.25,3.3,2.59,4.29,6.29,3.77,10.17C168.55,135.42,165.71,132.9,164.3,133.73Z"/><path class="cls-17" d="M193.12,136.06c-2.24-1.72-6.89,2-7.17-3.1-.25-4.77,4.35-9.47,8-9.22,3.51.24,7.08,5.09,6.51,9.89C199.8,139.31,195.42,134.39,193.12,136.06Z"/><path class="cls-10" d="M131.44,99.19a33.24,33.24,0,0,1-33.8,33.64c-18.88,0-33.51-14.89-33.47-34A33.54,33.54,0,0,1,98,65.09C116.79,65.18,131.47,80.13,131.44,99.19Z"/><path class="cls-39" d="M118.44,92.67c4.79-.23,4.78,2.32,4,6.07a25.23,25.23,0,0,1-31.59,19c-13.94-4-21.58-19.28-16.65-32.91,1.1-3,2.45-3.77,5.44-2.73,3.6,1.26,7.33,2.11,11,3.14.64,1.5,0,2.91-.31,4.35-1.82,8,2.08,15,9.51,17.13,7,2,14.1-2.16,16.7-9.62C117,95.55,116.79,93.68,118.44,92.67Z"/><path class="cls-40" d="M118.44,92.67c0,7.19-3.25,12.47-10,14.92a14.07,14.07,0,0,1-16.21-4.08c-5-5.62-5-11.87-1.62-18.32Z"/></g></g></svg>