<svg xmlns="http://www.w3.org/2000/svg" viewBox="0 0 309.8 247.76"><defs><style>.cls-1{fill:#fff;}.cls-2{fill:#e9531f;}.cls-3{fill:#020202;}.cls-4{fill:#3f4999;}.cls-5{fill:#040302;}.cls-6{fill:#0e0904;}.cls-7{fill:#0a0806;}.cls-8{fill:#15130d;}.cls-9{fill:#14120e;}.cls-10{fill:#181313;}.cls-11{fill:#251f1c;}.cls-12{fill:#32312f;}.cls-13{fill:#1b1811;}.cls-14{fill:#141415;}.cls-15{fill:#141414;}.cls-16{fill:#101111;}.cls-17{fill:#101010;}.cls-18{fill:#f7f7f8;}</style></defs><g id="Camada_2" data-name="Camada 2"><g id="Camada_1-2" data-name="Camada 1"><path class="cls-1" d="M265.54,143.71l30-3.22c-5.9,13.28-11.53,25.93-17.16,38.58.59,2.08-.19,3.94-1.06,5.74-2.84,5.81-5.42,11.76-8,17.69-1.5,3.48-4,5.39-7.71,5.09-14.42-1.16-28.9-.44-43.32-1.53a43.73,43.73,0,0,0-5-.37c-30.8,1.14-61-3.59-91-9.54-20.89-4.13-41.88-7.72-62.87-11.26-5.45-.91-8.7-3.32-10.09-8.7-1.45-5.62-3.27-11.14-5.12-16.65-.52-1.57-1.05-3.18-.23-4.83l-8.82-27.95,20.68,2.55c4.4-1.9,8.63.07,12.93.57,23.43,2.86,46.78,6.35,70.18,9.49,22.24,3,44.42,6.42,66.69,9.24,9.38,1.19,18.54-1.18,27.77-2.18,8.75-1,17.49-2.09,26.23-3.26C261.66,142.9,263.68,142.64,265.54,143.71Z"/><path class="cls-2" d="M265.54,143.71c-14.66,1.92-29.4,3.42-44,5.87-15.23,2.56-29.8-1.56-44.55-3.44-35.79-4.55-71.51-9.77-107.25-14.74a3.93,3.93,0,0,1-.92-.34c-1.56-1.69-.45-3.46-.07-5.14,2-9,4.78-17.88,7-26.88a10.49,10.49,0,0,1,4.6-6.77c8.61-5.56,16.53-12.19,25.88-16.6,1.82-1.44,3.42-.26,5.08.4l48.9,19.33a4.8,4.8,0,0,1,4.31.47c4.86,2.78,9,1.17,13.59-1.07,14.5-7.09,29.18-13.81,43.66-21,1.16-.64,2.29-1.35,3.51-1.89,4.54-2,6.38-1.59,9.26,2.6,5.18,7.51,9.94,15.3,14.89,23a89,89,0,0,0,5.08,7.36c.82,1.66,2.6,2.87,2.35,5,3.06,7,7.49,13.23,12,19.28,3.25,4.37,3,7.42-.68,10.92A23.38,23.38,0,0,0,265.54,143.71Z"/><path class="cls-3" d="M44,154.71c2.52,7.69,5.18,15.35,7.5,23.1.91,3.05,2.35,4.6,5.61,5.17,32.06,5.63,64.15,11.06,96.1,17.26,19.44,3.77,39,3.34,58.61,4.14,16.3.66,32.61,1,48.9,1.75,3.83.18,5.9-.66,7.42-4.47,3.07-7.67,6.79-15.07,10.24-22.59l31.38,4.62c-6.28,3.58-11.63,6.77-17.12,9.72-2.74,1.48-4.05,3-3.71,6.54,1,10.39,1.42,20.83,2.23,31.24.26,3.29-.51,4.12-4,3.56C270.15,232,253,229.63,236,227.1c-1.46-.22-3-.21-4.33-1.43,1.33-3.32,2.59-6.73,4.05-10,1.08-2.44.42-3.22-2.18-3.22-6.64,0-13.29-.13-19.93-.21-2.54,1.61-5.2.19-7.8.31-28.19,1.32-55.59-4-83.58-10.17,17.87,12.35,35.15,24.33,52.47,36.26,2.16,1.48,5.41,2.43,4.64,6.2L78.64,196.26l-.59.69,9.16,14.88-80.78-18L32.29,172,14.6,162Z"/><path class="cls-1" d="M14.27,63.61c3.21-.1,6.43-.18,9.64-.33.74,0,2.14.67,1.78-1.15C19.85,60.43,16.13,56,13.78,51A154.67,154.67,0,0,1,3.16,21.87L0,12.77c.62-.3.93-.59,1.13-.53C25.39,20.31,49.61,28.5,73.49,37.66a8.49,8.49,0,0,1,5.89,6.53c3.05,12.21,6.53,24.32,9.85,36.46-.38,2.56-2.69,2.66-4.43,3.3-5,1.83-10.15,3.12-15.22,4.69-3.79,1.18-6,3.36-6.35,7.3-.06.66,0-.17-.08.49C61,110.38,60.22,108,48.4,106.36c-3.11-.43-6.79.45-9.22-2.61l2.07-2.82c.34-3,2.52-4.35,4.82-5.59-.77-.17-1.51.31-2.31.43-7.64,1.08-13.35-.87-16.91-8.54-3.05-6.55-7.63-12.34-11.22-18.65C14.77,67.06,13.32,65.64,14.27,63.61Z"/><path class="cls-1" d="M253.82,105.8q-9.72-14.72-19.44-29.42c-3.93-6-4.09-6-10.39-2.27a9.1,9.1,0,0,1-1.82.63c-2.6-.24-2.22-2.3-1.88-3.73,2.2-9.36,4.82-18.62,7.53-27.85.34-1.18,1.53-1.72,2.08-2.74,7.54-4.72,16.12-6.94,24.37-9.89,16.74-6,33.56-11.72,50.35-17.55,1-.35,2.08-.58,4.07-1.14-3.74,9.57-7,18.36-10.64,27-2.15,5.16-3.2,10.83-6.87,15.31a26.12,26.12,0,0,1-6,7.57c1.1,1,2.19.76,3.06,1.2l5.27.71c-1.54,4.46-4.46,8-6.71,11.92-3,5.17-6.19,10.21-9.27,15.33-.95,1.58-1.83,3.17-3.84,3.61-3.82,1.14-7.65,2.13-12.75.08,2.8,1.56,4.69,2.51,4.66,4.94.24,1.82,4.61,2,2,4.93C263,105.26,258.69,108.24,253.82,105.8Z"/><path class="cls-4" d="M162.17,10.37,167.52,0c1.82-.08,1.91,1.63,2.51,2.6,6.47,10.59,13,21.16,19.17,31.91,1.87,3.22,3.3,3.55,6.45,1.6,5.47-3.38,11.29-6.21,17.3-9.44.26,3.19-1.42,5.55-2.31,8-3.07,8.72-6.49,17.32-9.47,26.07a10.9,10.9,0,0,1-5.9,6.81,51.09,51.09,0,0,0-9.89,6.05c-9,7.5-18.74,7.44-29.22,3.5a90,90,0,0,0-13.9-3.8c-4.07-.83-6.24-3.07-7.17-7.13-2.43-10.61-4.36-21.3-6-32l-1.62-10.25c7.21,4.37,12.65,10.24,19.55,14a3.26,3.26,0,0,0,3.85-2.29C154.17,27,158.73,19,162.17,10.37Z"/><path class="cls-2" d="M179.3,244.79c0-2.34-2.09-2.78-3.51-3.76q-27.39-19-54.84-37.89a4.7,4.7,0,0,1-2-2.5c11.4,2.17,22.86,4.06,34.18,6.57,17.17,3.81,34.6,3.69,52,4.2,2.81.08,5.61.51,8.42.78q-12.62,17-25.2,34c-1.2,1.62-2.39,2-4.19,1C182.61,246.31,180.93,245.59,179.3,244.79Z"/><path class="cls-5" d="M39.18,103.75c6.08.83,12.17,1.6,18.23,2.51,2,.29,2.65-.4,2.91-2.28.36-2.62,1.42-5.19,1.47-7.79.11-5.3,2.5-7.75,7.71-9,6.71-1.62,13.16-4.31,19.73-6.54l17-5C98,81.44,89.8,87.27,81.51,92.93A10.17,10.17,0,0,0,76.9,99.5c-2.47,10.57-5.35,21-8.07,31.56L55.9,129.31c.63-3.71,1.09-7.47,2-11.14.7-3,.22-4.77-3.09-5.87-5-1.66-9.75-3.9-14.59-5.94C39,105.87,37.4,105.41,39.18,103.75Z"/><path class="cls-6" d="M229.9,40.42c-2.72,10-5.46,20-8.14,30-.39,1.44-1.75,3.08.41,4.32-16.32,8.75-33.35,16-49.95,24.22-2.22,1.09-3.79-.4-5.57-1-2.19-.76-4.32-1.68-6.47-2.53,14.3-5.69,29.08-10,43.65-15a10.29,10.29,0,0,0,6.68-5.89c4.72-10.21,9.85-20.24,14.73-30.38C226.24,42.1,227.34,40.43,229.9,40.42Z"/><path class="cls-7" d="M129.11,34.17c3.08,9.87,4.86,20,6.9,30.15,1,4.8,2.81,7.31,7.79,8.29,7.88,1.55,15.65,3.72,23.39,5.88a11.73,11.73,0,0,0,10.23-1.39c2.39-1.53,4.85-3.38,8-3.45-5,4.68-11.14,7.73-16.59,11.76-1.34,1-2.91.44-4.35.08q-14.25-3.6-28.49-7.27c-1.57-.4-3-.63-3.17-3C131.57,61.55,129.56,47.93,129.11,34.17Z"/><path class="cls-8" d="M14.27,63.61c5.35,8.86,10.83,17.66,16,26.63,1.68,2.91,3.47,4.4,7,4,3.36-.34,6.77-.07,11.33-.07l-7.32,6.72c-7.62.6-11.71-3.56-15.16-9.88-5-9.22-11-18-16.84-27.44Z"/><path class="cls-9" d="M3.16,21.87c3.08,7.63,6.65,15.12,9.1,23,2.39,7.62,7.91,12.35,13.43,17.29C18.86,64.29,12.55,61,10.8,54.44,8.3,45,5.77,35.55,3.38,26.07,3.06,24.76,2,23.32,3.16,21.87Z"/><path class="cls-10" d="M162.17,10.37c-1,6.57-4.78,12.13-7,18.25-1.07,2.93-2.63,5.68-3.58,8.63-1.16,3.62-2.5,3.78-4.54.72Z"/><path class="cls-11" d="M253.82,105.8c4.6-.38,9.1-1.69,13.76-1.34l-10.75,5.44A9.45,9.45,0,0,1,253.82,105.8Z"/><path class="cls-12" d="M288.2,62.94l-7,.5,10-9.27C291.36,57.49,289,60,288.2,62.94Z"/><path class="cls-13" d="M265.56,99.53l-5.56-5h13.65Z"/><path class="cls-14" d="M103.36,169.05c-7.23,4.53-13.43,8.32-19.52,12.29-1.78,1.16-2.88.75-4.29-.5-3.23-2.87-6.55-5.63-9.92-8.34-1.64-1.32-2.13-2.49-1.07-4.61,4-8.14,7.86-16.4,11.93-25,4.8,3.49,9.34,6.76,13.84,10.09,1.06.79,2.15,1.76,1.07,3.3-1.33,1.89-2.63.69-3.81-.14-2.44-1.72-4.84-3.51-7.2-5.34-1.58-1.23-2.6-1.51-3.53.82-1.41,3.53-3.2,6.91-4.81,10.36-3.6,7.69-2.75,10.11,4.82,14.45,1,.57,1.6.85,2.63.17,2.69-1.8,5.46-3.47,9-5.69-3.37-.72-5.73-1.21-8.07-1.75-1.37-.32-2.65-.89-2.41-2.6.28-2,1.89-1.62,3.13-1.37C90.8,166.34,96.43,167.57,103.36,169.05Z"/><path class="cls-15" d="M120.15,154.83a60.19,60.19,0,0,0-12.27-2.92c.49,8.84,1,17.4,1.4,26,.08,1.66.93,4.2-1.81,4.3s-2.12-2.57-2.22-4.19c-.66-10.38-1.18-20.78-1.76-31.5l23,5.31c-2.25,4.13-4.21,8.1-6.53,11.86-1.38,2.24-1.63,3.87.14,6.13a100.92,100.92,0,0,1,6.76,10.38c.91,1.52,3.46,3.41,1,5-2.81,1.87-3.47-1.5-4.55-3-2.58-3.65-4.72-7.61-7.41-11.17-2-2.72-2.51-5-.44-7.91A92,92,0,0,0,120.15,154.83Z"/><path class="cls-14" d="M256.49,161.11c-.36,1.61-1.37,2.11-2.94,1.62-2.69-.83-5.45-1.49-8-2.56-4.09-1.7-5.67.49-7.08,3.78-1.49,3.5-.28,4.89,3.18,5.83,4.62,1.26,9,3.2,13.64,4.61,2.55.78,2.68,1.93,1.65,4.13-2.1,4.49-4,9.09-5.9,13.65-.77,1.81-1.36,3.15-3.8,1.53-4.55-3-9.36-5.65-14-8.52-1.06-.66-2.63-1.42-1.72-3s2.43-1.33,3.87-.45c3.39,2.07,6.86,4,10.17,6.2,1.71,1.13,2.62.8,3.26-1,.11-.31.18-.64.32-.94,3.68-8,3.69-8-4.72-11a26.35,26.35,0,0,1-3.72-1.4c-2.58-1.38-7.76-.92-7.46-4,.48-5.05.72-11.16,6.95-13.8a5.06,5.06,0,0,1,3.79-.52c3.45,1.16,6.92,2.29,10.37,3.46C255.4,159.16,256.55,159.55,256.49,161.11Z"/><path class="cls-16" d="M220.63,157.23c3.51,12.94,6.7,24.71,10.27,37.9-6-4.51-10.87-8.2-15.75-11.91-1.24-.94-1.68-2.15-.51-3.38,1-1,2-.57,3.05.24,1.66,1.3,3.43,2.47,6,4.32-1.86-6.9-3.46-12.86-5.1-19-2.5.87-3.14,2.52-3.61,4.58-1.43,6.28-3.12,12.51-4.62,18.78-.4,1.69-.61,3.55-3,2.88-2-.58-1.35-2.3-1-3.74,1.62-6.75,3.28-13.5,4.86-20.26C212.44,162.75,217.35,161.53,220.63,157.23Z"/><path class="cls-17" d="M141.31,175.32c-.69,2.56-1.47,5.09-2,7.67-.37,1.67-1.05,3-2.91,2.58s-1.48-2-1.18-3.25c1.69-7.25,3.25-14.55,5.27-21.71,1.2-4.29,5.82-5.54,9.1-9.12l10.21,37.56-16.84-12.76c.06-4.55.85-4.72,7.58-1.32-1-4.43-2.33-8.44-3.72-13.07C143.3,166.15,144.18,171.52,141.31,175.32Z"/><path class="cls-14" d="M179.5,161.27c-2.94,6.22-5.52,11.95-8.37,17.54-1,2-1,3.35.93,4.57a6.42,6.42,0,0,1,1.52,1.28c3.78,4.57,7.81,5.38,12.31,1a13.21,13.21,0,0,1,2.56-1.52,1.91,1.91,0,0,1,3,.68,1.79,1.79,0,0,1-.71,2.57c-3.45,2.28-7,4.46-10.47,6.66a1.65,1.65,0,0,1-2.25-.23c-.35-.35-.73-.67-1.11-1-3.89-3.34-9.82-6.06-11.11-10.21s3.62-9.08,5.62-13.76c1.68-3.94,3.7-7.75,5.52-11.63.61-1.31.94-2.47,2.76-1,3.91,3.08,8,5.94,12,8.91,1.08.81,2.25,1.75,1.25,3.27-1.19,1.81-2.48.92-3.76,0C186.06,166,183,163.8,179.5,161.27Z"/><path class="cls-14" d="M196.43,188.15c1.09-8.19,2.16-16.4,3.28-24.59.22-1.57.12-3.78,2.64-3.23,1.91.41,1.55,2.09,1.33,3.66-1.15,8.19-2.2,16.4-3.27,24.6-.19,1.47,0,3.28-2.28,3C196.15,191.29,196,189.8,196.43,188.15Z"/><path class="cls-18" d="M141.31,175.32c1.37-5.44,1.05-11.51,6-16.71l5.33,19.76c-2.57-1.84-4.25-3.08-6-4.26-2.76-1.91-3.85-.88-3.72,2.18Z"/><path class="cls-1" d="M197.55,109.13c7.87-5.42,15.34-10.31,23.55-14,2.54-1.16,4.39-1.07,6.51,1.21,5.08,5.48,10.43,10.72,15.86,15.87,2.19,2.08,1.89,3.12-.77,4-.31.11-.62.24-.92.38-5.59,2.52-11.22,7.08-16.75,7-5.31-.12-10.52-5.07-15.77-7.92C205.5,113.57,201.77,111.47,197.55,109.13Z"/></g></g></svg>