<svg xmlns="http://www.w3.org/2000/svg" viewBox="0 0 347.31 347.33"><defs><style>.cls-1{fill:#703c8f;}.cls-2{fill:#90d2eb;}.cls-3{fill:#ffd009;}.cls-4{fill:#ffd00a;}.cls-5{fill:#ffd00b;}.cls-6{fill:#ffcf11;}.cls-7{fill:#ffcf0f;}.cls-8{fill:#faca2a;}.cls-9{fill:#f7c73b;}.cls-10{fill:#f7c735;}.cls-11{fill:#e9531f;}.cls-12{fill:#e95320;}.cls-13{fill:#fecf11;}.cls-14{fill:#fecf0b;}.cls-15{fill:#fece0b;}.cls-16{fill:#0b0708;}.cls-17{fill:#0c070a;}.cls-18{fill:#0d0808;}.cls-19{fill:#ffcf0d;}.cls-20{fill:#fecf0e;}.cls-21{fill:#f9ca30;}.cls-22{fill:#faca2e;}.cls-23{fill:#f8c735;}.cls-24{fill:#f4c344;}.cls-25{fill:#f6c63a;}.cls-26{fill:#f7c736;}.cls-27{fill:#f9c930;}.cls-28{fill:#f5c63c;}.cls-29{fill:#190602;}.cls-30{fill:#180602;}.cls-31{fill:#594d10;}.cls-32{fill:#814617;}.cls-33{fill:#010102;}.cls-34{fill:#fff;}</style></defs><g id="Camada_2" data-name="Camada 2"><g id="Camada_1-2" data-name="Camada 1"><path class="cls-1" d="M.29,51A7.89,7.89,0,0,1,1,45.94c2.23-1.55,4.79-1.35,7.22-1,11.69,1.44,23.12-.22,34.48-2.64a82.93,82.93,0,0,0,20.25-7.6C48.06,29.9,34.21,24.92,20.14,20.57c-1.94-.6-4.39-.56-5.07-3.22a16.41,16.41,0,0,1,5-4.84c4.15.84,7.91,3,12.18,3.74-3.3-2.14-7.9-1.4-10.32-5.14C30,4.53,39.48.54,49.7.38c30-.45,60-.13,90-.11,1.81,1.37,2.64,3.34,3.44,5.37,5.37,13.6,9.65,27.56,13.74,41.58.41,1.4.41,3,1.67,4.34,1.74-11.52,2.86-22.88,3.8-34.27.47-5.72,0-11.58,2.3-17.06l15.5.12c1.42,3.18.8,6.55.76,9.81-.19,12.74.13,25.42,3.57,38.16C190,32.85,197.21,18.55,205.26,4.64c1-1.71,1.8-3.59,3.86-4.36,29.53,0,59.07-.51,88.59.16,12.7.29,24,5.76,32.9,15.38-1.95,3.23-5.78,2.67-8.63,4.39,3.82-.23,7-3.45,11-2.15a11.92,11.92,0,0,1,3.38,4.18c-.53,2.59-2.93,2.4-4.68,3-11.78,4-23.63,7.79-36.13,12.13a34.65,34.65,0,0,0,9.13,4.6,93.23,93.23,0,0,0,34.65,5.86c2.53-.08,5.38-.87,7.5,1.49.15,2.15.45,4.29.45,6.44q0,118.11,0,236.21a54.48,54.48,0,0,1-16.73,40.2,15.12,15.12,0,0,1-5.14,3.85c-2.57-.82-3.85-3.05-5.36-5-10.74-13.83-17.83-29.51-23.07-46.09-6.48-20.53-9.79-41.61-11.28-63.08-1-14.74-.75-29.51-1.78-44.23a13.53,13.53,0,0,1,.66-6.39c1.07-1.76,3-1.88,4.71-2.47,35.47-12.52,37-53.58,16.3-75.21-3.05-3.18-6-4.41-10.05-2.32-18.92,5.64-38,7.15-57.34,2.3-2.84-.7-5.53-3.22-8.66-.75-7.25,6.51-10.11,15.16-10.64,24.38-1.49,25.83,15.17,47.9,40.37,54.17a9.26,9.26,0,0,1,2.81,1c3,4.42,2.14,9.65,2.41,14.42,1.12,19.33,2.93,38.67,2.18,58.05-.62,16.36-.79,32.8-5.94,48.66-2.52,7.72-6.64,13.64-14.68,16.23a12.74,12.74,0,0,0-3.1,1.57c-3.52,2.29-3.41,4,.36,5.93.74.38,1.55.59,2.3.94,3,1.41,2.61,3.07.3,4.75-2.16,1.57-4.67,2.51-6.95,3.87-2.69,1.6-5,3.3-3.82,7.09a3,3,0,0,1-1.36,3.46c-3.87.39-5.9-2.64-8.17-4.8-7.57-7.22-14.94-14.65-22.21-22.17-2.6-2.69-4.18-2.82-5.47.88-.22.63.08-.14-.21.45-4.26,8.56-4.23,8.53-9.88,1.08-3.61-4.77-7-9.71-10.55-14.5-1.79-2.42-3-2.64-4.62.16-3.15,5.46-6.42,10.86-9.73,16.23-3.17,5.15-4.23,5.16-7.42.23-4.93-7.62-4.83-7.51-11.89-1.31-8.1,7.12-16.36,14.05-24.7,20.89-1.48,1.22-2.83,3-5.21,2.1-.9-.58-1.7-1.44-1.44-2.43,1.24-4.79-2-6.52-5.37-8.2-1-.52-2.08-1-3.09-1.6-1.73-1-3.91-2-3.85-4.17s2.68-2,4.24-2.7c3.21-1.48,3.46-2.71.91-5a6.73,6.73,0,0,0-2.07-1.37c-12.65-4.84-16.54-15.87-19.46-27.56-3.12-12.46-3.56-25.26-4-38-.68-22.2,1.42-44.32,3-66.44.19-2.63.63-5.29,2.47-7.42,2.47-1.81,5.49-2.22,8.27-3.25,20.41-7.51,33.46-21.43,37.41-43.14,2.2-12.06-1.16-22.89-7.83-32.93-2.37-3.56-5-4.6-8.69-2.09A100.16,100.16,0,0,1,56.5,93.75c-5.54-2.56-9.83-1-13.11,4-6.5,6.42-9.92,14.5-11.37,23.24-2.62,15.74.48,29.94,12.76,41.2a41.75,41.75,0,0,0,13.57,8c1.7.64,3.52,1.06,4.4,2.93,1.34,8.42,1,16.94.46,25.34-.94,15.72-1.35,31.48-3.81,47.11C54.81,274.78,46.68,302.63,29.17,327c-2.27,3.16-3.94,7.05-8.16,8.37C8,325.87,1.78,312.63.14,296.94A52.44,52.44,0,0,1,0,291.47Q0,174.76,0,58.05c0-1.33.1-2.65.15-4,1.8-1.73,4.06-1,6.6-1.23C4.45,51.82,1.89,53,.29,51Z"/><path class="cls-2" d="M232.51,337.3c1.56-.95,2.85-2.37,1.48-4-2.78-3.28-.34-4.84,1.88-6.24,3.71-2.33,7.6-4.37,12-6.85a79.72,79.72,0,0,1-7.57-2.81c-3.22-1.6-3.6-3.87-.48-6a24.16,24.16,0,0,1,6.61-3.33c6.4-1.85,9.78-6.43,12-12.26,3.67-9.54,5-19.57,5.8-29.65,2.44-30.69.16-61.29-2-91.89a4.78,4.78,0,0,0-.56-1.36,4.32,4.32,0,0,1-1.55-3.09c-.07-2-.21-4.09-.2-6.14-1.68-10.88-2.4-21.87-3.77-32.79a5.64,5.64,0,0,1,1-4.22c9.21-2.66,18.07-1.45,26.65,2.49a4.88,4.88,0,0,1,2.55,2.89c1.16,10.78.41,21.59.43,32.39.12,2.27.14,4.52-1.31,6.47.51,31.46.71,62.93,7.61,93.9,5.81,26,15.46,50.24,32.39,71.17a41.6,41.6,0,0,1-27.89,11.06c-27,.46-53.94.16-80.91.16-.27-.46-.3-1,.12-1.29C222,343,226.9,339.53,232.51,337.3Z"/><path class="cls-2" d="M85.72,171.86c-2.38,5.65-1.94,11.73-2.38,17.61-2.06,27-3.71,54-.51,81a100.63,100.63,0,0,0,4.6,21.35c2.53,7.29,6.26,13.41,13.84,16.66,3.34,1.43,8.37,2.85,8,7.08-.34,3.7-5.69,2.76-9.09,4.52,2.89,2.73,6.57,3.56,9.45,5.6,2.72,1.92,7.39,3,3.85,8.15-.72,1,.64,2,1.75,2.56,7.62,2.27,14.46,6.43,21.9,9.15a1.48,1.48,0,0,1,.84,1.64c-29.55,0-59.11.35-88.65-.17A41.72,41.72,0,0,1,21,335.37C41.4,311.58,51.42,283.22,56.8,253c4.72-26.53,5.44-53.38,5.08-80.26a8.59,8.59,0,0,1-1.26-4.21c0-2.1-.21-4.2-.06-6.3.17-10-1-20,.67-29.94,2.31-3.48,6.13-4.35,9.78-5.26,6.58-1.63,13.24-2.72,19.95-.44,1.39,2.2.59,4.56.24,6.77-1.63,10.48-2.6,21.05-4,31.55C86.63,167.18,86.36,169.56,85.72,171.86Z"/><path class="cls-3" d="M138,347.2c-7.53-3.71-16-5.46-22.74-10.79,11.2-9.59,22.44-19.14,33.58-28.81,1.93-1.68,2.88-1.4,4.07.69,1.88,3.3,4,6.47,6.38,10.31,5.22-8.71,10.22-17.05,15.52-25.87l18.35,25.17c2.28-2.87,3.38-6.09,4.63-9.17,1.13-2.79,1.91-3.65,4.53-1,9.95,10,20.14,19.74,30.24,29.58-4.43,4.68-10.69,6.45-15.87,9.93Z"/><path class="cls-4" d="M15.07,17.35,66,34.31C45.18,46.17,23.4,47.86,1,45.94A47.45,47.45,0,0,1,15.07,17.35Z"/><path class="cls-5" d="M346.83,49.31c-19.11.66-37.51-1.92-55.14-12.13l44.67-14.94A46.92,46.92,0,0,1,346.83,49.31Z"/><path class="cls-6" d="M209.12.28c-9.38,16.51-18.27,33.26-24.82,52.52-5.11-18.07-5.48-35.19-4.13-52.45C189.82-.17,199.47,0,209.12.28Z"/><path class="cls-7" d="M164.67.23a347.3,347.3,0,0,1-6,55.51C152.62,37,147,18.36,139.72.27Z"/><path class="cls-8" d="M21.94,11.11c4.06,1.38,8.12,2.73,12.17,4.15.9.32,2,.84,1.44,2.07a1.82,1.82,0,0,1-1.58.8c-4.66-1.8-10.09-1.73-13.89-5.62Z"/><path class="cls-9" d="M333,18.06c-3.85,1.32-7.69,2.68-11.57,3.92-1.05.34-2.47.66-2.81-.91-.25-1.13.82-1.6,1.78-1.91l10.23-3.34A4,4,0,0,1,333,18.06Z"/><path class="cls-10" d="M.29,51c2.44.14,4.88.22,7.3.47,1.18.12,3-.05,2.69,1.9-.23,1.42-1.67,1.19-2.82,1.11C5,54.33,2.6,54.21.16,54.08Z"/><path class="cls-11" d="M86,165.87c.64-13,2.78-25.81,4.64-38.66,1.28-2,3.19-1.18,4.94-1.09,4.92.23,9.7,1.65,14.86,2-9.07-13.63-38.53-21.9-61.66-12.55,8.74-3.25,17.82-3.2,26.91-3A50.17,50.17,0,0,1,101,120.39a15.21,15.21,0,0,1,2,1.44c1.1,1,2.75,1.91,1.87,3.6-.69,1.34-2.4.95-3.65.69-7.24-1.51-14.55-.77-21.83-.86a32.51,32.51,0,0,0-13.09,2.59c-1.92.8-4.17,1.57-4.09,4.37q-.18,15.24-.35,30.49c-5.45-.15-9.12-3.72-12.32-7.31-17-19.1-12.27-44.5,2.15-60.45a8.71,8.71,0,0,1,4.15-2.59A107.65,107.65,0,0,0,114.63,89c3.41.8,5.14,3.56,6.8,6.19,9,14.27,9.46,28.94,1.7,43.89a40.13,40.13,0,0,1-6,9.09,29.51,29.51,0,0,0-6.56,6.73c-6,6.17-13.77,9.18-21.81,11.59A2.66,2.66,0,0,1,86,165.87Z"/><path class="cls-11" d="M257.13,127.29l3.81,36.48c-1.53,1-2.89.13-4.2-.48-16.19-7.48-25.92-20-29.45-37.47-2.19-10.81.3-20.65,5.85-29.92,1-1.74,2.2-3.32,4.32-3.84,19.82,4.83,39.41,3.11,58.87-2.1,2,0,3.41,1.19,4.71,2.5,14.13,14.27,23,39.08,6,60.39-2.5,3.12-5.08,6.16-8.93,7.74a51.63,51.63,0,0,0-8.38,3.77c-1.29.52-2.52,1.31-4,.79-.82-11.1-.47-22.22-.33-33.33,1.52-2.64-.84-3.19-2.32-3.88A27.07,27.07,0,0,0,272,125.37c-7.62-.14-15.26-.72-22.86.57-1.64.28-4,1.35-4.85-.88-.78-2.06,1.35-3.2,2.84-4.15,7.4-4.71,15.4-7.89,24.24-8.27,9.8-.42,19.62-.43,29.06,3-19.68-8.68-50.11-3.16-62.1,12.36,5.05.13,9.64-1.73,14.4-1.71C254.25,126.31,256.05,125.24,257.13,127.29Z"/><path class="cls-12" d="M101.57,297.92c2-11.92,3.83-23.16,5.71-34.39q7.25-43.33,14.52-86.67c.88-5.22,2-10.41,2.72-15.65.32-2.33,1.33-2.55,3.29-2.26q47.69,7,95.38,13.82c2.11.3,3.05,1,3.4,3.35q7.86,52.07,15.95,104.08c.83,5.4,1.72,10.78,2.72,17C197.39,283.27,149.84,282.11,101.57,297.92Z"/><path class="cls-3" d="M315.56,78.05c-38.14,18.62-83.21,19.33-117.07-11.14-2.64-2.38-3.48-4.37-2-7.67,2.81-6.24,6.67-11.78,10.55-17.36,1.85-2.67,2.89-.71,4.19.28A173.76,173.76,0,0,0,281.41,74.5C292.31,76.81,303.36,77.71,315.56,78.05Z"/><path class="cls-3" d="M27.55,78.41A176,176,0,0,0,95.44,63.16a160.58,160.58,0,0,0,34.87-20.87c2.57-2.07,3.84-1.81,5.58.87,3.61,5.56,7.56,10.88,9.94,17.16.9,2.37.53,3.92-1.37,5.63-22,19.84-47.74,27.86-77.11,24.44A117.87,117.87,0,0,1,27.55,78.41Z"/><path class="cls-5" d="M165.66,149.91c-3.6-7.4-7.19-14.8-11.11-22.88,9.48.74,18.4,1.39,27.32,2.13,5.44.46,10.85,1.17,16.29,1.54,3.44.23,3.07,1.41,1.37,3.53-4.67,5.78-9.26,11.63-13.88,17.45C178.8,153.21,172.06,153.49,165.66,149.91Z"/><path class="cls-13" d="M116.26,147.89c3.09-4.86,6.63-9.52,8.44-15,5.45-16.59,2.35-31.35-10.07-43.91,3.38-2.81,5.84-2.22,8.5,1.4,12.07,16.5,12.5,33.85,3.54,51.53-8.49,16.75-22.92,26-40.95,30-1.24-2.06-.47-4,.26-6,8.86-2,17-5.5,23.89-11.53C111.91,152.1,114.11,150,116.26,147.89Z"/><path class="cls-6" d="M297.78,159.79c13.77-9.15,22.31-28.69,14-48.94A53.5,53.5,0,0,0,296.33,90c3.79-2.81,6.59-1.65,9.6,1.67,16.55,18.21,19.27,43.74,6.26,61.93-6.62,9.26-15.68,14.91-26.75,17.38.09-1.93.19-3.87.28-5.79l3.57-1.38A92.29,92.29,0,0,0,297.78,159.79Z"/><path class="cls-14" d="M237.46,92.06c-19,22.5-8.1,55.29,16.26,68.38,2.33,1.25,4.81,2.22,7.22,3.32a13.82,13.82,0,0,1,.39,5.79c-1.47.91-2.89.3-4.29-.18-20.44-7-35.75-28.69-35.87-50.48-.06-9.84,1-19.24,8.13-26.87C232,87.82,234.74,91.82,237.46,92.06Z"/><path class="cls-15" d="M55.89,92.36C47,101.14,41,111.5,40.22,124.13c-1,17.34,6,30.47,21.69,38.58v5.86c-2.16,1-3.9-.28-5.53-1.26-12.76-7.69-20.78-18.59-22.66-33.66-1.69-13.52.92-25.92,9.34-36.87C46,91.43,50.11,89.49,55.89,92.36Z"/><path class="cls-16" d="M229.3,92c-18,30.51.39,68,32,77.53l.3,3.39c-19.61-2.21-39.25-21.06-43.13-41.31-2.49-13-.94-25.29,6.85-36.38C226.36,93.81,227,91.86,229.3,92Z"/><path class="cls-17" d="M165.66,149.91l20,1.77,3.41.16c1.82-1.27,3.84-.59,5.78-.6,5.79,0,11.48,1.11,17.25,1.37a6.45,6.45,0,0,1,4.86,2.13,79.42,79.42,0,0,1-35,3c-9.14-1.24-18.35-2.56-27.55-2.66-8.12-.1-14.41-4-21.11-7.4a2.86,2.86,0,0,1,1.69-.94c9.33-.34,18.6-.1,27.58,2.88Z"/><path class="cls-18" d="M43.06,96.78c.33,2.07-1.33,3.29-2.16,4.82-14.15,25.79-4.88,55.41,21,67l0,4.13C45.14,167.76,34.2,157,30.7,139.81c-3.17-15.55.78-29.7,10.64-42.14C41.71,97.21,42.48,97.07,43.06,96.78Z"/><path class="cls-19" d="M162.56,149.6l-29.27-1.94c-2.24-.52-1.61-1.43-.45-2.63,6-6.19,11.89-12.42,18.43-19.26Z"/><path class="cls-20" d="M217,154.74l-27.89-2.9,13.81-18.08c5.37,6.65,10.5,12.94,15.56,19.28C220.76,156,217.41,154.14,217,154.74Z"/><path class="cls-21" d="M77.28,32.67a11.69,11.69,0,0,1-2.1-.89c-1.41-1.05-5.08-.36-4-3.1.86-2.1,3.5,0,5.29.42,2.06.52,4.43.94,4.15,3.91-.14,1.43-6.43,6.27-7.58,5.87-1.58-.54-1.48-1.71-.44-2.64C74,35,75.45,34.05,77.28,32.67Z"/><path class="cls-22" d="M284.12,33.41c-5.37,5.62,2.3,5,3.47,7.39.38.79,1.71,1.18.93,2.37s-1.62.76-2.52.12c-2.42-1.73-4.9-3.38-7.28-5.15-1.33-1-2-2.42-.73-3.84a5.4,5.4,0,0,1,5.3-1.89C283.65,32.49,283.9,33.13,284.12,33.41Z"/><path class="cls-23" d="M309.92,54c-2.57-.91-6.31-2.22-10-3.59-.75-.28-1.68-.76-1.35-1.75s1.22-1.37,2.39-1c3.78,1.22,7.6,2.31,11.36,3.57.92.3,1.91,1.05,1.48,2.21S312.15,54.31,309.92,54Z"/><path class="cls-24" d="M329.4,54c3.76.26,6.06.34,8.34.61.92.1,2.2.33,2.17,1.56,0,1.48-1.33,1.73-2.51,1.66-3.6-.23-7.2-.54-10.8-.82-1.2-.1-2.5-.34-2.38-1.84.14-1.72,1.66-1.12,2.71-1.16C328.24,54,329.55,54,329.4,54Z"/><path class="cls-25" d="M60.83,24.81c-.2,1.8-1.48,1.7-2.55,1.38-3.76-1.12-7.48-2.36-11.2-3.6-.79-.27-1.63-.83-1.51-1.71a1.41,1.41,0,0,1,1.78-1.26c4.2,1.33,8.38,2.74,12.54,4.18C60.28,23.93,60.54,24.48,60.83,24.81Z"/><path class="cls-26" d="M306.59,23.67a1.51,1.51,0,0,1,2,1c.27,1-.47,1.57-1.26,1.83-3.92,1.3-7.86,2.57-11.81,3.78a1.45,1.45,0,0,1-2-.91c-.27-1,.54-1.57,1.29-1.82C298.72,26.19,302.66,25,306.59,23.67Z"/><path class="cls-27" d="M50.55,50c-1.61.16-2.48.16-2.89-.75s.31-1.59,1-1.87q5.76-2.23,11.59-4.28c.93-.33,2.07-.42,2.42.85.26,1-.61,1.56-1.33,1.85C57.56,47.37,53.7,48.82,50.55,50Z"/><path class="cls-28" d="M27,54.22c-1.54,0-2.38.05-3.2,0s-2.24.29-2.43-1c-.23-1.57,1.09-1.88,2.27-1.9a55.92,55.92,0,0,0,11.4-1A1.45,1.45,0,0,1,37,51.36c.25,1.36-.76,1.63-1.79,1.77Z"/><path class="cls-29" d="M257.13,127.29a100.76,100.76,0,0,0-17.19,2.4c-1.37.3-3.24,1.08-4.14-.39-1-1.64.76-2.68,1.81-3.63,13-11.83,28.37-16.61,45.75-15.34a64.25,64.25,0,0,1,17,3.26c1.58.56,4.41.53,3.75,2.94-.79,2.9-3.1.68-4.54.26-18.7-5.35-36.67-4.91-53.41,6.29a3.58,3.58,0,0,0-1.5,2.06c2.11-.27,4.22-.63,6.33-.78,11.75-.87,23.55-2.18,34.67,3.34,1.27.63,3,1.11,2.6,3.1-.37,1.68-1.83.93-2.89,1-5.6-4.28-12.2-4.73-18.85-4.85C263.42,126.91,260.27,127.17,257.13,127.29Z"/><path class="cls-30" d="M62.26,132.22c-3.28-1.69-1.48-3.07.38-4.13a35,35,0,0,1,16.14-4.3,137.87,137.87,0,0,1,25.67,1.08c-10.59-8.74-22.88-11.78-36.29-11.29a70.79,70.79,0,0,0-19.94,3.66c-1.21.41-2.67,1.41-3.25-.57-.51-1.71,1-2.23,2.27-2.66,21.21-7.2,46.36-5.16,64.08,11.63,1,.92,3,1.71,2,3.5-.87,1.63-2.74.86-4.09.58a100.19,100.19,0,0,0-18.64-2.51C80.74,126.48,71,126.57,62.26,132.22Z"/><path class="cls-31" d="M116.26,147.89a18.61,18.61,0,0,1-6.39,6.45A10.53,10.53,0,0,1,116.26,147.89Z"/><path class="cls-32" d="M297.78,159.79a14,14,0,0,1-8.49,4C291.89,162,294.46,160.07,297.78,159.79Z"/><path class="cls-33" d="M219.61,184.22c2.4,9.79,3.29,19.83,4.84,29.77,3.37,21.59,6.44,43.23,9.73,64.84,1.1,7.16,1.24,7.16-5.86,5.56a243.57,243.57,0,0,0-113.26.87c-.91.23-1.85.34-3.18.57,6.5-38.92,12.94-77.42,19.37-115.91,3.57,2.38,3.53,6.56,4.82,10,2.69,7.22,4.06,8.05,11.25,5.1,2.57-1,4.3,0,5.71,1.65,3.95,4.65,9.18,5.57,14.83,5.61,12.11.08,24.12,1.91,36.24,2,6.12.07,11.32-.71,13.15-7.73A3.54,3.54,0,0,1,219.61,184.22Z"/><path class="cls-34" d="M219.61,184.22a16.53,16.53,0,0,0-1.3,3.2c-1.3,7.3-6.69,8.78-12.75,8.46-15.35-.8-30.68-2-46-2.95-4-.25-5.5-3.88-8.08-6-1.77-1.46-2.75-2.11-4.64-.1-3,3.18-9.15,1.74-10.65-2.39-1.76-4.8-3.29-9.68-4.92-14.53-.35-3.17,2-2,3.3-1.85q31.89,4.58,63.77,9.27c5.88.86,11.76,1.77,17.67,2.5C218.74,180.18,220.42,181.08,219.61,184.22Z"/></g></g></svg>