<svg xmlns="http://www.w3.org/2000/svg" viewBox="0 0 322.44 321.55"><defs><style>.cls-1{fill:#eb569a;}.cls-2{fill:#ffd00c;}.cls-3{fill:#ffd00b;}.cls-4{fill:#703c8f;}.cls-5{fill:#ffd00d;}.cls-6{fill:#ffcf0f;}.cls-7{fill:#140b09;}.cls-8{fill:#180e0b;}.cls-9{fill:#110509;}.cls-10{fill:#fece19;}.cls-11{fill:#fece1a;}.cls-12{fill:#7e4894;}.cls-13{fill:#7a4694;}.cls-14{fill:#763d90;}.cls-15{fill:#793e90;}.cls-16{fill:#783e90;}.cls-17{fill:#763e90;}.cls-18{fill:#773e90;}.cls-19{fill:#753d90;}.cls-20{fill:#743d90;}.cls-21{fill:#7b3f91;}.cls-22{fill:#7c3f91;}.cls-23{fill:#783e91;}.cls-24{fill:#7d4091;}.cls-25{fill:#753e90;}.cls-26{fill:#7a3f91;}.cls-27{fill:#5f393b;}.cls-28{fill:#0c0111;}.cls-29{fill:#09030d;}.cls-30{fill:#09030e;}</style></defs><g id="Camada_2" data-name="Camada 2"><g id="Camada_1-2" data-name="Camada 1"><path class="cls-1" d="M.21,207.62C.15,190.35.05,173.07,0,155.8,0,120.91,0,86,.07,51.13.16,25.71,16.51,6,41.41.84A29.7,29.7,0,0,1,47.35.18q49,0,97.93,0c1.91,2.07,2.27,4.75,2.86,7.32,5.5,24.21,12.12,48.13,17.89,71.34-.47-1.08.3-2.91.78-4.7C173,51.25,178.9,28.29,185,5.38A11.23,11.23,0,0,1,187.74.16c28.81,0,57.62-.38,86.42,0C299,.58,321.72,21.56,322,45.71c.64,56.79.2,113.6.2,170.4-1,2-2.85,3.18-4.65,4.38-43.27,28.93-86.6,57.78-130.26,86.12C171,317.16,154,316.14,138,305.55c-19.27-12.76-37.79-26.61-56.64-40-26-18.47-51.92-37.13-78.19-55.26A29.94,29.94,0,0,1,.21,207.62Z"/><path class="cls-2" d="M.21,207.62c5.44,1.92,9.7,5.74,14.28,9Q75.32,259.75,136.06,303c17.23,12.24,36,12.55,53.5.92Q254,261.19,318.4,218.47c1.24-.83,2.53-1.58,3.8-2.36q0,22.19,0,44.38c-1.55,2.48-4.28,3-6.73,4-17.56,6.69-35,13.73-52.53,20.46-7.58,2.9-8.76,8.58-3.29,14.65,6,6.63,13.52,11.23,20.67,16.35,1.53,1.11,3.84,1.55,3.78,4.13a44.34,44.34,0,0,1-12.35,1.51q-110.44,0-220.89,0c-4.85,0-9.65-.26-14.22-2.11.43-2.53,2.72-3.18,4.47-4.32,5.58-3.63,11.45-6.8,16.68-11a33.71,33.71,0,0,0,7-7c3.28-4.75,2.59-8.54-2.46-11.14-10.06-5.18-20.06-10.48-30.41-15.07-9.75-4.32-19.12-9.39-28.69-14.06a9.8,9.8,0,0,1-3.08-2.49Q.19,231,.21,207.62Z"/><path class="cls-1" d="M.17,254.34c21.1,10.15,42.22,20.24,63.28,30.47,5,2.41,6.17,6.8,3.53,11.67-1.78,3.28-4.59,5.64-7.46,7.93-7.16,5.71-15.3,9.94-22.87,15C17.4,314.7,1.46,295.92.3,276.19-.13,268.93.19,261.63.17,254.34Z"/><path class="cls-1" d="M284.11,320c-6.6-4.74-13.26-9.43-19.8-14.26a29.22,29.22,0,0,1-7.88-8.25c-3.45-5.74-1.78-10.74,4.49-13.19q30.61-12,61.29-23.85c.32,8.95.8,17.93-2.35,26.56C313.63,304.16,301.84,315.31,284.11,320Z"/><path class="cls-3" d="M187.74.16Q177,40.75,166.31,81.36c-7.83-27-15.47-53.82-21-81.17Z"/><path class="cls-2" d="M204.19,93.72C215,83.64,227,76.22,242.46,75.89c16.52-.35,30.26,5.55,41,17.94,2.27,2.61,3.57,2.41,5.93.5,6.34-5.11,12.87-10,19.27-15,2.05-1.61,3.08-1.7,3.23,1.33,1,20.55.06,40.88-7.9,60.21-9.78,23.76-27.37,36.81-53.43,38-7.1.34-14.15,1-21.06-1.24-31.59-7.22-50.3-48.05-30.09-77.44C200.56,97.72,203.07,96.23,204.19,93.72Z"/><path class="cls-4" d="M175.26,195.58c1.66,0,3.33-.12,5,0,7.66.61,11.29,5.3,9.8,12.92-1.12,5.77-3.88,10.93-7,15.81a134.07,134.07,0,0,1-9,12.55c-1.84,2.22-1.61,3.37.34,5.21,5.57,5.25,10.9,10.74,14.54,17.59,5.14,9.66,1.87,15.66-9.11,16.67-12.15,1.12-21.16-4.51-28.32-13.61a66.44,66.44,0,0,1-13-26.63c-2.4-10.85,2.65-20.11,9.17-28.27C154.58,199.15,164.08,195.21,175.26,195.58Z"/><path class="cls-3" d="M290.06,76c-16.63-16.33-37.26-20.22-58.6-21.75-8.45-.6-17-.09-25.46-.05-1.67,0-3.16.34-4-1.87-2.4-6.44-4.32-13-3.5-19.9,1.09-9.14,6.94-14.85,17-16.1,21.93-2.74,51.92,4.87,65.81,33.33A109.06,109.06,0,0,1,290.06,76Z"/><path class="cls-3" d="M35.24,66.65c6.3-23.34,17-43.06,41.46-51.69a73.58,73.58,0,0,1,32.5-3.55c14.87,1.56,21.67,11.2,18.57,25.78-.1.49-.27,1-.39,1.44-3,12.42-3,12.07-15.67,11-17.33-1.49-34.61-1-51.49,3.92A65.44,65.44,0,0,0,35.24,66.65Z"/><path class="cls-5" d="M10,82.22l.56-4.92c6.56,5.06,12.78,9.63,18.72,14.54,3.36,2.78,5.28,3.53,9-.41,16.48-17.59,42.81-20.91,63.5-8.66A51.73,51.73,0,0,1,72.61,179c-5.72-.31-11.49-.53-17-2.37-15.13-3.4-25.5-13.12-33.1-25.87C11.27,131.94,7.92,111.24,9.55,89.62,9.73,87.15,9.46,84.66,10,82.22Z"/><path class="cls-6" d="M152.82,140.65c.54-1.89,2-1.22,3.22-1.13,4.71.35,9.4.76,14.1,1.14,2.51,2.93.3,6.13.07,9-.71,8.83-2.4,17.58-3.84,26.34a4.8,4.8,0,0,1-2,3.29c-2.86,1.15-5.5,1.14-7.68-1.41-2.33-10.85-3.07-21.93-4.74-32.88A7.37,7.37,0,0,1,152.82,140.65Z"/><path class="cls-7" d="M10,82.22c-.58,19.16.79,38.07,7.84,56.16,6.8,17.48,18,30.72,36.2,37.2a7.27,7.27,0,0,1,1.55,1.07C40.85,175.2,29.36,168,20.67,156.36c-9.73-13-12.42-28.32-13.19-44.05A116.63,116.63,0,0,1,10,82.22Z"/><path class="cls-8" d="M200.31,99.9c-15.64,26.92-5.82,53.54,11.24,67.61,5.42,4.48,11.84,7,18,10.14-11.13-1.06-19.92-6.71-27.47-14.39a47.83,47.83,0,0,1-2.66-64.2C200.18,98.81,200.52,99.06,200.31,99.9Z"/><path class="cls-9" d="M157.56,178.05c2.24.82,4.57.57,6.88.61a5,5,0,0,1,2.33-.87c3.62,1,7.81-.65,11.06,2.26-2.83,2.71-5,7.23-8.77,7.58a54.85,54.85,0,0,1-18.19-1.42c-3.42-.88-4.63-5.66-6.71-8.78,3.12-1.8,6.48-.92,9.76-.89C155.33,176.56,156.33,177.59,157.56,178.05Z"/><path class="cls-10" d="M155.61,177.9l-11.45-.47c.23-9.14,3.12-17.83,4.62-26.75.51-3.06.65-6.28,2.24-9.1,2.4,3.82,1.74,8.25,2.51,12.39,1.14,6.15,1.4,12.42,2.58,18.58A8.4,8.4,0,0,1,155.61,177.9Z"/><path class="cls-11" d="M177.83,180.05c-3.75-.81-7.69,0-11.38-1.35-.89-6.86,1.34-13.39,2.31-20,.53-3.61-.2-7.63,2.59-10.73A211.41,211.41,0,0,1,177.83,180.05Z"/><path class="cls-12" d="M171.35,147.94q-2.46,15.38-4.9,30.76l-2,0,5.7-38c.68-.87,1.77-2.45,2-.06S171.65,145.49,171.35,147.94Z"/><path class="cls-13" d="M155.61,177.9,151,141.59c.49-.91-.8-2.31.77-2.8a10.46,10.46,0,0,1,1,1.86q2.35,18.71,4.73,37.4C156.84,178.86,156.23,178.33,155.61,177.9Z"/><path class="cls-14" d="M159.21,308.5a32.56,32.56,0,0,1-10.87-3c-.9-.41-2-.84-1.77-2s1.47-1.12,2.41-1c3.87.67,7.75,1.34,11.6,2.18,1.27.28,2.73,1.26,2.4,2.66C162.5,309.44,160.52,308.16,159.21,308.5Z"/><path class="cls-15" d="M214.94,280.93a8,8,0,0,1-1.27,1.4q-5.13,3.5-10.34,6.91c-.79.51-1.79,1.23-2.64.15s0-1.86.82-2.42c3.58-2.39,7.18-4.78,10.82-7.08C213.39,279.22,214.56,279,214.94,280.93Z"/><path class="cls-16" d="M239.19,264.13c-.19.64-.19,1.08-.39,1.24a72.06,72.06,0,0,1-12.45,8.14,1.17,1.17,0,0,1-1.57-.79,1.48,1.48,0,0,1,.39-1.3c4-2.67,8-5.31,12.07-7.88C238.06,263,238.71,263.66,239.19,264.13Z"/><path class="cls-17" d="M27,216.54c1,.6,2,1.15,2.91,1.8,3.08,2.18,6.15,4.37,9.2,6.6.68.49,1.28,1.22.66,2.05a1.49,1.49,0,0,1-2.2.15c-3.75-2.66-7.5-5.31-11.19-8a2.31,2.31,0,0,1-.6-1.68C25.75,217.15,26.46,216.89,27,216.54Z"/><path class="cls-18" d="M87.71,259.92c-.08,1.33-1.1,1.92-2,1.33-4-2.66-7.82-5.51-11.69-8.32a1.16,1.16,0,0,1-.33-1.72,1.88,1.88,0,0,1,1.73-.4c3.95,2.7,7.83,5.5,11.71,8.3A3.08,3.08,0,0,1,87.71,259.92Z"/><path class="cls-19" d="M111.62,276.88c-.05,1.35-1.07,1.94-2,1.34-4-2.66-7.83-5.49-11.66-8.34a1.78,1.78,0,0,1-.33-1.71,1.74,1.74,0,0,1,1.68-.39c4,2.7,7.82,5.51,11.7,8.31A3.17,3.17,0,0,1,111.62,276.88Z"/><path class="cls-19" d="M63.92,243.2c-.42,1.63-1.51,1.58-2.6.83-3.65-2.52-7.25-5.11-10.85-7.7-.69-.49-1.31-1.23-.8-2a1.79,1.79,0,0,1,1.69-.47c4,2.78,8,5.67,12,8.54A2.7,2.7,0,0,1,63.92,243.2Z"/><path class="cls-20" d="M4.37,201.62c4,2.14,8.69,3.87,12.08,7.66a1,1,0,0,1-.13,1.69c-.35.25-1,.5-1.31.34Q8.94,207.59,3,203.73a1.53,1.53,0,0,1-.46-1.27C2.6,201.67,3.32,201.61,4.37,201.62Z"/><path class="cls-20" d="M312.81,216a8.27,8.27,0,0,1-1.29,1.36q-5.32,3.6-10.71,7.12c-.69.45-1.54.89-2.21,0-.84-1.08-.09-1.84.76-2.41,3.56-2.39,7.12-4.79,10.75-7.08C311.1,214.41,312.32,214.14,312.81,216Z"/><path class="cls-19" d="M288.22,232.42a11.93,11.93,0,0,1-1.45,1.34c-3.43,2.33-6.9,4.61-10.34,6.93-.9.61-1.83,1-2.61,0s0-1.55.71-2c3.71-2.5,7.43-5,11.2-7.43a2.54,2.54,0,0,1,1.81-.17C287.82,231.13,288,231.84,288.22,232.42Z"/><path class="cls-16" d="M191,296.39c-1.92,2.75-4.75,3.92-7.22,5.46s-4.73,3.21-7.71,2.83a1,1,0,0,1-.16-1.9c4.73-1.74,8.63-4.93,13-7.24C189.83,295.08,190.46,295.66,191,296.39Z"/><path class="cls-19" d="M263.83,248.28a8.67,8.67,0,0,1-1.47,1.65c-3.39,2.34-6.83,4.61-10.25,6.9-.87.58-1.89,1-2.61,0-.54-.76,0-1.59.76-2.08q5.53-3.74,11.1-7.41C262.33,246.73,263.22,246.74,263.83,248.28Z"/><path class="cls-20" d="M122.41,284.44a16.27,16.27,0,0,1,1.83,1q5.08,3.57,10.12,7.2c.72.51,1.21,1.29.73,2.11s-1.43.68-2.15.17c-3.67-2.55-7.34-5.11-11-7.76a2.36,2.36,0,0,1-.57-1.72C121.42,285.1,122,284.79,122.41,284.44Z"/><path class="cls-21" d="M151.65,54a1.49,1.49,0,0,1,.91-1.38c1.35-.61,1.78.57,2,1.46.95,3.49,1.82,7,2.64,10.52.17.75.16,1.75-.88,2a1.57,1.57,0,0,1-1.8-1.33C153.58,61.81,152.73,58.3,151.65,54Z"/><path class="cls-22" d="M147.34,28.81c.28.36.85.8,1,1.35,1,3.62,2,7.26,2.82,10.92a2,2,0,0,1-.64,1.68,1.05,1.05,0,0,1-1.62-.53c-1.14-4.08-2.22-8.17-3.2-12.29C145.56,29.34,146.32,28.88,147.34,28.81Z"/><path class="cls-23" d="M184.94,29.45C184,33,183,36.68,182,40.34c-.22.75-.76,1.59-1.81,1.18a1.63,1.63,0,0,1-.86-2.1q1.4-5.28,3-10.52c.23-.77.73-1.56,1.79-1.18C184.76,28,185,28.58,184.94,29.45Z"/><path class="cls-24" d="M191.05,6.46c-.94,3.42-1.79,6.59-2.68,9.74-.26.93-.54,2.1-1.87,1.68-1.16-.37-1.13-1.41-.85-2.45q1.29-4.74,2.53-9.5c.26-1,.6-2.15,1.73-2C191.48,4.2,191.19,5.58,191.05,6.46Z"/><path class="cls-25" d="M161.22,90.09a9.93,9.93,0,0,1-.38-1.2c-.9-3.52-1.83-7-2.65-10.56-.17-.74-.17-1.83,1-1.87a1.88,1.88,0,0,1,1.46,1c1,3.66,1.87,7.34,2.7,11C163.46,89.13,163.2,89.85,161.22,90.09Z"/><path class="cls-26" d="M173.25,62.48c.84-3.23,1.59-6.27,2.46-9.26.25-.87.53-2.14,1.87-1.84s1.13,1.38.87,2.39c-.83,3.19-1.6,6.39-2.49,9.56-.26.94-.86,2-2.07,1.54S173.2,63.21,173.25,62.48Z"/><path class="cls-18" d="M166.94,86.16c.85-3.18,1.67-6.37,2.57-9.53.22-.8.75-1.62,1.71-1.45,1.43.24,1.14,1.48.93,2.35q-1.14,4.8-2.53,9.55c-.26.88-.64,2.1-2,1.62S166.74,87.15,166.94,86.16Z"/><path class="cls-18" d="M145.14,17.09c0,.6.37,1.81-1.1,1.95-.95.08-1.44-.73-1.64-1.53-.78-3.18-1.53-6.36-2.2-9.56-.19-.9-.46-2.12.8-2.47s1.71.83,1.93,1.73C143.71,10.38,144.37,13.59,145.14,17.09Z"/><path class="cls-27" d="M200.31,99.9l-.91-.84a18.38,18.38,0,0,1,4.79-5.34C203.92,96.42,201.82,98,200.31,99.9Z"/><path class="cls-4" d="M290.31,127.64c0,25.27-20.88,46.05-46,45.86-25.44-.2-46.06-20.76-46.07-45.93a46,46,0,0,1,92.06.07Z"/><path class="cls-28" d="M148.63,242.6c.08-3.18,1.07-4.67,4.25-5.46,10.55-2.62,18.18-8.51,19.26-21.62,1.7,6.06,1.37,7.31-2.5,13.92-1.92,3.29-4.13,6.69,1.05,9.73C163,238.6,155.12,236,148.63,242.6Z"/><path class="cls-4" d="M121.38,127.55a46,46,0,0,1-45.91,46c-25.24,0-46.11-20.72-46.14-45.84a46,46,0,0,1,92.05-.11Z"/><path class="cls-29" d="M255.89,154.35a7.5,7.5,0,0,1-2.26.45c-4.7-.19-5.83,2.22-5.52,6.48.14,1.93,1.56,5.64-1.58,5.65-2.58,0-1.4-3.63-1.28-5.55.24-3.94-.39-6.44-5.2-5.7-1.24.19-2.61-.43-3.91-.7-3.66-.75-6.75-.53-7.84,4-.33,1.33-.88,3.23-3,2.09-1.81-1-.67-2.58-.05-3.42,2.7-3.65,1.12-5.41-2.47-6.67a7.47,7.47,0,0,1-2.94-1.82c-3.39-3.6-6.7-4.4-10.3-.26-.72.84-2,1.58-3,.24a1.72,1.72,0,0,1,.53-2.6c3.57-2.37,7-4.7,3.72-9.74-.44-.67.35-1.59,1.23-1.77a1.67,1.67,0,0,1,2,1.17c4.08,10.72,13,14.46,23.36,15.62,12.85,1.44,24.9-.17,34.12-10.67a34.23,34.23,0,0,0,5.27-8.34c.49-1.07.83-2.42,2.35-1.88,1.82.63,1.07,2.11.73,3.35A5.86,5.86,0,0,1,279,136c-2.85,4.06-5.57,8,1.12,11.18a1.64,1.64,0,0,1,.63,2.55c-1,1.43-2.05.5-3-.09a18.86,18.86,0,0,1-2.3-1.9c-1.92-1.7-3.81-2.73-5.79,0a4,4,0,0,1-1.63,1.12c-4.88,2-7.25,4.55-2.33,9.1a2,2,0,0,1,0,3.09c-1.34,1-2.11-.25-2.79-1.1a43.3,43.3,0,0,1-3.2-4.43C259,154.22,258.05,153.52,255.89,154.35Z"/><path class="cls-30" d="M108.41,137.35c-4.13,4.73.26,6.56,3.55,8.91.74.53,1.53,1.37.75,2.52s-1.91,1.24-2.86.18c-4-4.46-7.56-3.69-11.12.61a7.54,7.54,0,0,1-3.43,2c-2.94.93-3.47,2.52-1.94,5.12.82,1.39,2.06,3.38.11,4.35-2.16,1.07-2.78-1.55-3.08-2.81-.88-3.62-3-4.25-6.16-3.34a7.15,7.15,0,0,1-2.44.41c-6.29-.4-9,2.24-7.6,8.6.3,1.44.18,3.38-1.93,3.27s-1.75-2-1.81-3.49a10.89,10.89,0,0,0,0-2c-.5-2.29,1.66-5.85-2.51-6.43-3.51-.48-7.82-3.34-10,2.35a10.17,10.17,0,0,1-2.08,2.77c-.64.71-1.33,1.54-2.51.79-1.4-.89-1.13-1.88-.16-2.84,4.58-4.51,2.71-6.69-2.2-9.76-3.71-2.32-5.76-2.67-8.71.26-.88.88-2.36,2.66-3.73.83-1.19-1.6.34-2.67,1.66-3.5,3.09-2,5-4.14,1.4-7.39a3,3,0,0,1-.74-1.29c-.68-2.12-3.7-4.93-.94-6.28,3-1.44,2.78,2.78,3.83,4.5,5.92,9.76,14.41,15.26,25.83,16.19A54.64,54.64,0,0,0,86.35,151c8.4-1.93,15-6.08,18.55-14.19.5-1.13.75-2.2,2.33-1.86C108.38,135.19,108.13,136.12,108.41,137.35Z"/></g></g></svg>