<svg width="137" height="25" viewBox="0 0 137 25" fill="none" xmlns="http://www.w3.org/2000/svg">
<path d="M0.556406 24V3H4.57641L13.5164 17.82H11.3864L20.1764 3H24.1664L24.2264 24H19.6664L19.6364 9.99H20.4764L13.4564 21.78H11.2664L4.09641 9.99H5.11641V24H0.556406ZM35.6888 24.24C34.3488 24.24 33.1488 23.98 32.0888 23.46C31.0488 22.94 30.2388 22.15 29.6588 21.09C29.0788 20.01 28.7888 18.64 28.7888 16.98V7.86H33.4688V16.29C33.4688 17.63 33.7488 18.62 34.3088 19.26C34.8888 19.88 35.6988 20.19 36.7388 20.19C37.4588 20.19 38.0988 20.04 38.6588 19.74C39.2188 19.42 39.6588 18.94 39.9788 18.3C40.2988 17.64 40.4588 16.82 40.4588 15.84V7.86H45.1388V24H40.6988V19.56L41.5088 20.85C40.9688 21.97 40.1688 22.82 39.1088 23.4C38.0688 23.96 36.9288 24.24 35.6888 24.24ZM54.9045 24.24C53.5245 24.24 52.1945 24.08 50.9145 23.76C49.6545 23.42 48.6545 23 47.9145 22.5L49.4745 19.14C50.2145 19.6 51.0845 19.98 52.0845 20.28C53.1045 20.56 54.1045 20.7 55.0845 20.7C56.1645 20.7 56.9245 20.57 57.3645 20.31C57.8245 20.05 58.0545 19.69 58.0545 19.23C58.0545 18.85 57.8745 18.57 57.5145 18.39C57.1745 18.19 56.7145 18.04 56.1345 17.94C55.5545 17.84 54.9145 17.74 54.2145 17.64C53.5345 17.54 52.8445 17.41 52.1445 17.25C51.4445 17.07 50.8045 16.81 50.2245 16.47C49.6445 16.13 49.1745 15.67 48.8145 15.09C48.4745 14.51 48.3045 13.76 48.3045 12.84C48.3045 11.82 48.5945 10.92 49.1745 10.14C49.7745 9.36 50.6345 8.75 51.7545 8.31C52.8745 7.85 54.2145 7.62 55.7745 7.62C56.8745 7.62 57.9945 7.74 59.1345 7.98C60.2745 8.22 61.2245 8.57 61.9845 9.03L60.4245 12.36C59.6445 11.9 58.8545 11.59 58.0545 11.43C57.2745 11.25 56.5145 11.16 55.7745 11.16C54.7345 11.16 53.9745 11.3 53.4945 11.58C53.0145 11.86 52.7745 12.22 52.7745 12.66C52.7745 13.06 52.9445 13.36 53.2845 13.56C53.6445 13.76 54.1145 13.92 54.6945 14.04C55.2745 14.16 55.9045 14.27 56.5845 14.37C57.2845 14.45 57.9845 14.58 58.6845 14.76C59.3845 14.94 60.0145 15.2 60.5745 15.54C61.1545 15.86 61.6245 16.31 61.9845 16.89C62.3445 17.45 62.5245 18.19 62.5245 19.11C62.5245 20.11 62.2245 21 61.6245 21.78C61.0245 22.54 60.1545 23.14 59.0145 23.58C57.8945 24.02 56.5245 24.24 54.9045 24.24ZM65.412 24V7.86H70.092V24H65.412ZM67.752 5.61C66.892 5.61 66.192 5.36 65.652 4.86C65.112 4.36 64.842 3.74 64.842 3C64.842 2.26 65.112 1.64 65.652 1.14C66.192 0.639999 66.892 0.389998 67.752 0.389998C68.612 0.389998 69.312 0.629999 69.852 1.11C70.392 1.57 70.662 2.17 70.662 2.91C70.662 3.69 70.392 4.34 69.852 4.86C69.332 5.36 68.632 5.61 67.752 5.61ZM82.2354 24.24C80.4954 24.24 78.9454 23.89 77.5854 23.19C76.2254 22.47 75.1554 21.48 74.3754 20.22C73.6154 18.96 73.2354 17.53 73.2354 15.93C73.2354 14.31 73.6154 12.88 74.3754 11.64C75.1554 10.38 76.2254 9.4 77.5854 8.7C78.9454 7.98 80.4954 7.62 82.2354 7.62C83.9354 7.62 85.4154 7.98 86.6754 8.7C87.9354 9.4 88.8654 10.41 89.4654 11.73L85.8354 13.68C85.4154 12.92 84.8854 12.36 84.2454 12C83.6254 11.64 82.9454 11.46 82.2054 11.46C81.4054 11.46 80.6854 11.64 80.0454 12C79.4054 12.36 78.8954 12.87 78.5154 13.53C78.1554 14.19 77.9754 14.99 77.9754 15.93C77.9754 16.87 78.1554 17.67 78.5154 18.33C78.8954 18.99 79.4054 19.5 80.0454 19.86C80.6854 20.22 81.4054 20.4 82.2054 20.4C82.9454 20.4 83.6254 20.23 84.2454 19.89C84.8854 19.53 85.4154 18.96 85.8354 18.18L89.4654 20.16C88.8654 21.46 87.9354 22.47 86.6754 23.19C85.4154 23.89 83.9354 24.24 82.2354 24.24ZM92.0721 24V1.74H96.7521V24H92.0721ZM101.096 24V7.86H105.776V24H101.096ZM103.436 5.61C102.576 5.61 101.876 5.36 101.336 4.86C100.796 4.36 100.526 3.74 100.526 3C100.526 2.26 100.796 1.64 101.336 1.14C101.876 0.639999 102.576 0.389998 103.436 0.389998C104.296 0.389998 104.996 0.629999 105.536 1.11C106.076 1.57 106.346 2.17 106.346 2.91C106.346 3.69 106.076 4.34 105.536 4.86C105.016 5.36 104.316 5.61 103.436 5.61ZM115.549 24.24C114.169 24.24 112.839 24.08 111.559 23.76C110.299 23.42 109.299 23 108.559 22.5L110.119 19.14C110.859 19.6 111.729 19.98 112.729 20.28C113.749 20.56 114.749 20.7 115.729 20.7C116.809 20.7 117.569 20.57 118.009 20.31C118.469 20.05 118.699 19.69 118.699 19.23C118.699 18.85 118.519 18.57 118.159 18.39C117.819 18.19 117.359 18.04 116.779 17.94C116.199 17.84 115.559 17.74 114.859 17.64C114.179 17.54 113.489 17.41 112.789 17.25C112.089 17.07 111.449 16.81 110.869 16.47C110.289 16.13 109.819 15.67 109.459 15.09C109.119 14.51 108.949 13.76 108.949 12.84C108.949 11.82 109.239 10.92 109.819 10.14C110.419 9.36 111.279 8.75 112.399 8.31C113.519 7.85 114.859 7.62 116.419 7.62C117.519 7.62 118.639 7.74 119.779 7.98C120.919 8.22 121.869 8.57 122.629 9.03L121.069 12.36C120.289 11.9 119.499 11.59 118.699 11.43C117.919 11.25 117.159 11.16 116.419 11.16C115.379 11.16 114.619 11.3 114.139 11.58C113.659 11.86 113.419 12.22 113.419 12.66C113.419 13.06 113.589 13.36 113.929 13.56C114.289 13.76 114.759 13.92 115.339 14.04C115.919 14.16 116.549 14.27 117.229 14.37C117.929 14.45 118.629 14.58 119.329 14.76C120.029 14.94 120.659 15.2 121.219 15.54C121.799 15.86 122.269 16.31 122.629 16.89C122.989 17.45 123.169 18.19 123.169 19.11C123.169 20.11 122.869 21 122.269 21.78C121.669 22.54 120.799 23.14 119.659 23.58C118.539 24.02 117.169 24.24 115.549 24.24ZM132.656 24.24C130.756 24.24 129.276 23.76 128.216 22.8C127.156 21.82 126.626 20.37 126.626 18.45V4.29H131.306V18.39C131.306 19.07 131.486 19.6 131.846 19.98C132.206 20.34 132.696 20.52 133.316 20.52C134.056 20.52 134.686 20.32 135.206 19.92L136.466 23.22C135.986 23.56 135.406 23.82 134.726 24C134.066 24.16 133.376 24.24 132.656 24.24ZM124.136 11.82V8.22H135.326V11.82H124.136Z" fill="black"/>
</svg>
